<svg width="220" height="156" viewBox="0 0 220 156" fill="none" xmlns="http://www.w3.org/2000/svg">
<path d="M88.0465 75.0996C88.6186 79.2747 88.6186 81.552 88.0465 85.3476L78.703 85.3476C78.703 85.3476 78.703 82.2246 78.703 80.2236C78.703 78.2226 78.703 75.0996 78.703 75.0996L88.0465 75.0996Z" fill="url(#paint0_linear_5458_33863)"/>
<rect x="82.2568" y="73.6367" width="1.77684" height="13.176" fill="url(#paint1_linear_5458_33863)"/>
<path d="M88.0465 105.191C88.6186 109.367 88.6186 111.644 88.0465 115.439L78.703 115.439C78.703 115.439 78.703 112.316 78.703 110.315C78.703 108.314 78.703 105.191 78.703 105.191L88.0465 105.191Z" fill="url(#paint2_linear_5458_33863)"/>
<rect x="82.2568" y="103.729" width="1.77684" height="13.176" fill="url(#paint3_linear_5458_33863)"/>
<path d="M125.369 85.6309C124.797 81.4558 124.797 79.1784 125.369 75.3829L134.713 75.3829C134.713 75.3829 134.713 78.5058 134.713 80.5069C134.713 82.5079 134.713 85.6309 134.713 85.6309L125.369 85.6309Z" fill="url(#paint4_linear_5458_33863)"/>
<rect x="131.159" y="87.0957" width="1.77684" height="13.176" transform="rotate(180 131.159 87.0957)" fill="url(#paint5_linear_5458_33863)"/>
<path d="M125.369 115.719C124.797 111.544 124.797 109.266 125.369 105.471L134.713 105.471C134.713 105.471 134.713 108.594 134.713 110.595C134.713 112.596 134.713 115.719 134.713 115.719L125.369 115.719Z" fill="url(#paint6_linear_5458_33863)"/>
<rect x="131.159" y="117.184" width="1.77684" height="13.176" transform="rotate(180 131.159 117.184)" fill="url(#paint7_linear_5458_33863)"/>
<path d="M105.15 51.2952C106.225 50.6334 106.812 50.6334 107.789 51.2952L107.789 61.5899C107.789 61.5899 106.985 62.1038 106.47 62.1038C105.954 62.1038 105.15 61.5899 105.15 61.5899L105.15 51.2952Z" fill="url(#paint8_linear_5458_33863)"/>
<path d="M101.634 58.9342C105.575 58.6287 107.725 58.6287 111.309 58.9342L111.309 63.9228C111.309 63.9228 108.36 63.9228 106.471 63.9228C104.582 63.9228 101.634 63.9228 101.634 63.9228L101.634 58.9342Z" fill="url(#paint9_linear_5458_33863)"/>
<path d="M128.017 69.0606C109.107 69.0605 100.312 69.0606 85.7994 69.0606L85.7994 122.272C85.7994 122.272 98.6647 122.272 106.908 122.272C115.152 122.272 128.017 122.272 128.017 122.272L128.017 69.0606Z" fill="url(#paint10_linear_5458_33863)"/>
<path d="M92.5513 139.561C90.8683 139.561 90.3073 139.561 88.5122 139.561L88.5122 127.93C88.5122 127.93 89.743 127.93 90.5317 127.93C91.3204 127.93 92.5513 127.93 92.5513 127.93L92.5513 139.561Z" fill="url(#paint11_linear_5458_33863)"/>
<path d="M123.622 139.498C121.79 139.498 121.179 139.498 119.224 139.498L119.224 129.063C119.224 129.063 120.565 129.063 121.423 129.063C122.282 129.063 123.622 129.063 123.622 129.063L123.622 139.498Z" fill="url(#paint12_linear_5458_33863)"/>
<path d="M102.059 52.5391C101.492 51.8305 101.492 51.444 102.059 50.7998L110.869 50.7998C110.869 50.7998 111.309 51.3298 111.309 51.6694C111.309 52.0091 110.869 52.5391 110.869 52.5391L102.059 52.5391Z" fill="url(#paint13_linear_5458_33863)"/>
<path d="M101.254 56.8867C100.585 56.1781 100.585 55.7917 101.254 55.1475L111.666 55.1475C111.666 55.1475 112.186 55.6775 112.186 56.0171C112.186 56.3567 111.666 56.8867 111.666 56.8867L101.254 56.8867Z" fill="url(#paint14_linear_5458_33863)"/>
<path d="M101.365 61.2344C84.9506 61.2344 85.712 65.3845 85.712 69.3162L128.017 69.753C128.017 63.1128 125.69 61.2344 113.21 61.2344H101.365Z" fill="url(#paint15_linear_5458_33863)"/>
<path d="M101.365 130.805C84.9506 130.805 85.712 126.655 85.712 122.723L128.017 122.286C128.017 128.926 125.69 130.805 113.21 130.805H101.365Z" fill="url(#paint16_linear_5458_33863)"/>
<rect x="84.9219" y="68.1914" width="43.9767" height="2.60884" rx="1.30442" fill="url(#paint17_linear_5458_33863)"/>
<rect x="84.9219" y="120.369" width="43.9767" height="2.60884" rx="1.30442" fill="url(#paint18_linear_5458_33863)"/>
<path fill-rule="evenodd" clip-rule="evenodd" d="M159.698 65.5V68.6898C159.69 70.6595 158.927 72.5462 157.574 73.9392C156.222 75.3322 154.39 76.1187 152.477 76.1276H137.374V83.3516H152.477C156.25 83.3425 159.867 81.7947 162.535 79.047C165.203 76.2993 166.705 72.5753 166.713 68.6898V65.5H159.698Z" fill="#B3B8BA"/>
<path fill-rule="evenodd" clip-rule="evenodd" d="M160.687 77.3439C160.72 77.3108 160.759 77.2848 160.802 77.2673C160.844 77.2497 160.89 77.241 160.936 77.2416C160.982 77.2423 161.027 77.2522 161.07 77.2709C161.112 77.2896 161.15 77.3166 161.182 77.3505C161.214 77.3844 161.239 77.4245 161.257 77.4684C161.274 77.5124 161.282 77.5594 161.281 77.6067C161.281 77.654 161.271 77.7008 161.253 77.7442C161.235 77.7877 161.209 77.8271 161.176 77.8601C160.522 78.5165 159.799 79.0947 159.02 79.5837C158.243 80.0709 157.416 80.4652 156.552 80.7588L156.348 80.8277L156.141 80.8912C156.097 80.9044 156.05 80.9085 156.005 80.9033C155.959 80.8981 155.915 80.8837 155.875 80.8609C155.835 80.8381 155.799 80.8074 155.771 80.7706C155.742 80.7337 155.721 80.6914 155.708 80.646C155.695 80.6006 155.691 80.5531 155.696 80.5061C155.701 80.4592 155.715 80.4137 155.737 80.3723C155.759 80.3309 155.789 80.2944 155.825 80.2649C155.861 80.2354 155.902 80.2134 155.946 80.2002L156.14 80.1391L156.333 80.0764C157.146 79.798 157.925 79.4253 158.655 78.9655C159.39 78.5035 160.072 77.9574 160.687 77.3376V77.3439ZM154.132 80.5849C154.223 80.5774 154.312 80.6063 154.383 80.6656C154.453 80.7248 154.498 80.8098 154.508 80.9025C154.519 80.9953 154.494 81.0888 154.44 81.1632C154.385 81.2376 154.304 81.2873 154.214 81.3017C153.986 81.3291 153.749 81.3511 153.505 81.366C153.262 81.3808 153.023 81.3887 152.793 81.3887C152.7 81.3887 152.611 81.3506 152.545 81.2829C152.479 81.2152 152.442 81.1233 152.442 81.0275C152.442 80.9317 152.479 80.8399 152.545 80.7721C152.611 80.7044 152.7 80.6664 152.793 80.6664C153.027 80.6664 153.25 80.6593 153.464 80.6468C153.679 80.6342 153.905 80.6146 154.132 80.5849Z" fill="white"/>
<path fill-rule="evenodd" clip-rule="evenodd" d="M166.292 65.7602H162.291V68.7975C162.291 74.2972 157.921 78.7979 152.58 78.7979H138.992V82.918H152.477C156.139 82.9095 159.648 81.4077 162.237 78.7413C164.827 76.0749 166.285 72.4609 166.292 68.6902V65.7602Z" fill="#D3D6D8"/>
<path fill-rule="evenodd" clip-rule="evenodd" d="M138.992 79.6227V82.2988H152.731C159.861 82.2988 165.694 76.2923 165.694 68.9509V65.7576H163.095V69.2697C163.095 74.9636 158.57 79.6227 153.041 79.6227H138.992Z" fill="#EAECEC"/>
<path fill-rule="evenodd" clip-rule="evenodd" d="M160.687 77.3439C160.72 77.3108 160.759 77.2848 160.802 77.2673C160.844 77.2497 160.89 77.241 160.936 77.2416C160.982 77.2423 161.027 77.2522 161.07 77.2709C161.112 77.2896 161.15 77.3166 161.182 77.3505C161.214 77.3844 161.239 77.4245 161.257 77.4684C161.274 77.5124 161.282 77.5594 161.281 77.6067C161.281 77.654 161.271 77.7008 161.253 77.7442C161.235 77.7877 161.209 77.8271 161.176 77.8601C160.522 78.5165 159.799 79.0947 159.02 79.5837C158.243 80.0709 157.416 80.4652 156.552 80.7588L156.348 80.8277L156.141 80.8912C156.097 80.9044 156.05 80.9085 156.005 80.9033C155.959 80.8981 155.915 80.8837 155.875 80.8609C155.835 80.8381 155.799 80.8074 155.771 80.7706C155.742 80.7337 155.721 80.6914 155.708 80.646C155.695 80.6006 155.691 80.5531 155.696 80.5061C155.701 80.4592 155.715 80.4137 155.737 80.3723C155.759 80.3309 155.789 80.2944 155.825 80.2649C155.861 80.2354 155.902 80.2134 155.946 80.2002L156.14 80.1391L156.333 80.0764C157.146 79.798 157.925 79.4253 158.655 78.9655C159.39 78.5035 160.072 77.9574 160.687 77.3376V77.3439ZM154.132 80.5849C154.223 80.5774 154.312 80.6063 154.383 80.6656C154.453 80.7248 154.498 80.8098 154.508 80.9025C154.519 80.9953 154.494 81.0888 154.44 81.1632C154.385 81.2376 154.304 81.2873 154.214 81.3017C153.986 81.3291 153.749 81.3511 153.505 81.366C153.262 81.3808 153.023 81.3887 152.793 81.3887C152.7 81.3887 152.611 81.3506 152.545 81.2829C152.479 81.2152 152.442 81.1233 152.442 81.0275C152.442 80.9317 152.479 80.8399 152.545 80.7721C152.611 80.7044 152.7 80.6664 152.793 80.6664C153.027 80.6664 153.25 80.6593 153.464 80.6468C153.679 80.6342 153.905 80.6146 154.132 80.5849Z" fill="white"/>
<path fill-rule="evenodd" clip-rule="evenodd" d="M134.674 84.6062V74.8714C134.675 74.6093 134.776 74.3581 134.956 74.1727C135.136 73.9873 135.38 73.8828 135.634 73.8819H137.441C137.696 73.8826 137.94 73.987 138.12 74.1724C138.3 74.3579 138.402 74.6092 138.402 74.8714V84.6062C138.402 84.8689 138.3 85.1205 138.119 85.306C137.939 85.4915 137.694 85.5957 137.439 85.5957H135.632C135.378 85.5943 135.135 85.4894 134.955 85.3041C134.776 85.1188 134.675 84.8679 134.674 84.6062Z" fill="#273335"/>
<path d="M135.038 84.6081V74.8732C135.038 74.711 135.101 74.5553 135.212 74.4406C135.324 74.3258 135.475 74.2614 135.632 74.2614H137.438C137.596 74.2614 137.748 74.3259 137.859 74.4408C137.971 74.5557 138.033 74.7115 138.033 74.874V84.6081C138.033 84.7705 137.971 84.9264 137.859 85.0413C137.748 85.1562 137.596 85.2207 137.438 85.2207H135.632C135.475 85.2205 135.323 85.1559 135.212 85.041C135.101 84.9261 135.038 84.7704 135.038 84.6081Z" fill="#455456"/>
<path fill-rule="evenodd" clip-rule="evenodd" d="M135.377 82.4305V77.5467C135.377 77.3242 135.522 77.1424 135.698 77.1424H136.652C136.829 77.1424 136.973 77.3242 136.973 77.5467V82.4305C136.973 82.6522 136.829 82.834 136.652 82.834H135.698C135.522 82.834 135.377 82.6522 135.377 82.4305Z" fill="#747F81"/>
<path fill-rule="evenodd" clip-rule="evenodd" d="M137.374 75.178V84.963C137.374 85.052 137.355 85.1399 137.318 85.2207H137.451C137.61 85.2201 137.762 85.155 137.874 85.0397C137.986 84.9243 138.049 84.7681 138.049 84.6049V74.8168C138.049 74.6537 137.986 74.4974 137.874 74.3821C137.762 74.2668 137.61 74.2017 137.451 74.2011H135.635C135.523 74.2017 135.413 74.2348 135.317 74.2967C135.222 74.3587 135.146 74.4468 135.097 74.5513V74.5599H136.779C136.937 74.5613 137.088 74.6271 137.2 74.7428C137.311 74.8586 137.374 75.015 137.374 75.178Z" fill="#273335"/>
<path d="M135.377 83.6322V84.5378C135.377 84.7057 135.509 84.8418 135.672 84.8418H136.679C136.842 84.8418 136.975 84.7057 136.975 84.5378V83.6322C136.975 83.4643 136.842 83.3282 136.679 83.3282H135.672C135.509 83.3282 135.377 83.4643 135.377 83.6322Z" fill="#747F81"/>
<path d="M135.618 84.027V84.4352C135.618 84.5109 135.677 84.5723 135.751 84.5723H136.205C136.279 84.5723 136.338 84.5109 136.338 84.4352V84.027C136.338 83.9513 136.279 83.8899 136.205 83.8899H135.751C135.677 83.8899 135.618 83.9513 135.618 84.027Z" fill="#919898"/>
<path d="M135.618 80.83V82.4117C135.618 82.4939 135.682 82.5605 135.762 82.5605H136.194C136.273 82.5605 136.338 82.4939 136.338 82.4117V80.83C136.338 80.7478 136.273 80.6811 136.194 80.6811H135.762C135.682 80.6811 135.618 80.7478 135.618 80.83Z" fill="#919898"/>
<path d="M135.618 79.9313V80.3395C135.618 80.4152 135.677 80.4766 135.751 80.4766H136.205C136.279 80.4766 136.338 80.4152 136.338 80.3395V79.9313C136.338 79.8556 136.279 79.7942 136.205 79.7942H135.751C135.677 79.7942 135.618 79.8556 135.618 79.9313Z" fill="#919898"/>
<path fill-rule="evenodd" clip-rule="evenodd" d="M167 46H159.769V70.7704C159.76 72.4132 158.974 73.9867 157.58 75.1484C156.186 76.3101 154.298 76.966 152.327 76.9734H152V83H152.327C156.216 82.9924 159.943 81.7012 162.693 79.4089C165.443 77.1167 166.992 74.0099 167 70.7684V46Z" fill="#B3B8BA"/>
<path fill-rule="evenodd" clip-rule="evenodd" d="M166 49L161.945 49.0317V71.5677C161.945 76.0204 157.516 79.6643 152.103 79.6643V83H152C155.711 82.9931 159.267 81.7773 161.891 79.6184C164.515 77.4596 165.992 74.5337 166 71.4808V49Z" fill="#D3D6D8"/>
<path fill-rule="evenodd" clip-rule="evenodd" d="M153 79.8443V82H153.151C160.217 82 166 77.1618 166 71.2482V49H163.424V71.505C163.424 76.0915 158.939 79.8443 153.458 79.8443H153Z" fill="#EAECEC"/>
<path fill-rule="evenodd" clip-rule="evenodd" d="M152.414 75.1211C151.409 74.0728 150.128 73.359 148.734 73.0698C147.341 72.7806 145.896 72.929 144.583 73.4963C143.27 74.0637 142.148 75.0243 141.358 76.2569C140.568 77.4895 140.147 78.9387 140.147 80.4211C140.147 81.9036 140.568 83.3527 141.358 84.5853C142.148 85.8179 143.27 86.7786 144.583 87.3459C145.896 87.9132 147.341 88.0616 148.734 87.7724C150.128 87.4832 151.409 86.7694 152.414 85.7212C153.081 85.0252 153.61 84.1989 153.971 83.2895C154.332 82.3801 154.518 81.4054 154.518 80.4211C154.518 79.4368 154.332 78.4621 153.971 77.5528C153.61 76.6434 153.081 75.8171 152.414 75.1211Z" fill="#273335"/>
<path fill-rule="evenodd" clip-rule="evenodd" d="M151.113 76.4751C150.365 75.6951 149.412 75.1639 148.375 74.9488C147.338 74.7338 146.262 74.8444 145.285 75.2667C144.308 75.689 143.473 76.404 142.885 77.3214C142.298 78.2388 141.984 79.3174 141.984 80.4207C141.984 81.524 142.298 82.6025 142.885 83.5199C143.473 84.4373 144.308 85.1523 145.285 85.5747C146.262 85.997 147.338 86.1076 148.375 85.8925C149.412 85.6774 150.365 85.1463 151.113 84.3662C151.61 83.8481 152.004 83.233 152.273 82.556C152.542 81.879 152.68 81.1534 152.68 80.4207C152.68 79.6879 152.542 78.9623 152.273 78.2853C152.004 77.6083 151.61 76.9932 151.113 76.4751Z" fill="#455456"/>
<path fill-rule="evenodd" clip-rule="evenodd" d="M147.332 78.7871C146.923 78.7965 146.533 78.9729 146.246 79.2784C145.96 79.5839 145.799 79.9942 145.799 80.4216C145.799 80.8489 145.96 81.2593 146.246 81.5648C146.533 81.8703 146.923 82.0466 147.332 82.0561H158.725C159.134 82.0466 159.524 81.8703 159.811 81.5648C160.097 81.2593 160.257 80.8489 160.257 80.4216C160.257 79.9942 160.097 79.5839 159.811 79.2784C159.524 78.9729 159.134 78.7965 158.725 78.7871H147.332Z" fill="#E74657"/>
<path fill-rule="evenodd" clip-rule="evenodd" d="M149.159 78.5131C148.798 78.1358 148.337 77.8788 147.836 77.7746C147.334 77.6704 146.814 77.7237 146.342 77.9278C145.869 78.1319 145.465 78.4776 145.181 78.9211C144.897 79.3647 144.745 79.8862 144.745 80.4197C144.745 80.9532 144.897 81.4747 145.181 81.9182C145.465 82.3618 145.869 82.7075 146.342 82.9115C146.814 83.1156 147.334 83.169 147.836 83.0648C148.337 82.9606 148.798 82.7036 149.159 82.3262C149.644 81.8205 149.916 81.1347 149.916 80.4197C149.916 79.7046 149.644 79.0189 149.159 78.5131Z" fill="#F5AB29"/>
<path fill-rule="evenodd" clip-rule="evenodd" d="M149.033 79.624C148.874 79.4585 148.672 79.3458 148.452 79.3001C148.232 79.2544 148.004 79.2778 147.797 79.3673C147.59 79.4568 147.412 79.6084 147.288 79.8029C147.163 79.9974 147.097 80.2261 147.097 80.4601C147.097 80.694 147.163 80.9227 147.288 81.1172C147.412 81.3117 147.59 81.4633 147.797 81.5528C148.004 81.6423 148.232 81.6657 148.452 81.62C148.672 81.5743 148.874 81.4616 149.033 81.2961C149.245 81.0744 149.364 80.7736 149.364 80.4601C149.364 80.1465 149.245 79.8458 149.033 79.624Z" fill="#F4CD72"/>
<path fill-rule="evenodd" clip-rule="evenodd" d="M152.482 79.307C152.375 79.3036 152.269 79.3225 152.17 79.3626C152.07 79.4028 151.98 79.4633 151.903 79.5407C151.827 79.618 151.766 79.7106 151.725 79.8129C151.683 79.9153 151.662 80.0253 151.662 80.1364C151.662 80.2475 151.683 80.3575 151.725 80.4598C151.766 80.5621 151.827 80.6547 151.903 80.7321C151.98 80.8094 152.07 80.87 152.17 80.9101C152.269 80.9502 152.375 80.9691 152.482 80.9657H158.261C158.468 80.959 158.664 80.8687 158.808 80.7139C158.952 80.5591 159.032 80.352 159.032 80.1364C159.032 79.9208 158.952 79.7136 158.808 79.5588C158.664 79.404 158.468 79.3137 158.261 79.307H152.482Z" fill="#EB7080"/>
<path fill-rule="evenodd" clip-rule="evenodd" d="M148.519 76.8665C148.636 76.9097 148.766 76.9025 148.878 76.8464C148.99 76.7903 149.077 76.69 149.118 76.5674C149.16 76.4449 149.153 76.3102 149.099 76.193C149.045 76.0757 148.949 75.9856 148.831 75.9424C148.643 75.8749 148.45 75.82 148.254 75.7782C148.058 75.736 147.86 75.7071 147.66 75.6917C147.539 75.6874 147.421 75.7323 147.331 75.817C147.24 75.9017 147.185 76.0196 147.176 76.1459C147.168 76.2722 147.206 76.3971 147.284 76.4944C147.362 76.5916 147.473 76.6536 147.593 76.6674C147.752 76.6789 147.909 76.7011 148.065 76.734C148.22 76.7675 148.372 76.8118 148.521 76.8665H148.519ZM145.79 77.0204C145.846 76.9932 145.897 76.9547 145.939 76.907C145.981 76.8593 146.013 76.8034 146.035 76.7425C146.056 76.6816 146.065 76.6169 146.062 76.5521C146.059 76.4874 146.044 76.4239 146.018 76.3653C145.991 76.3068 145.954 76.2543 145.907 76.2109C145.861 76.1675 145.807 76.1341 145.749 76.1127C145.69 76.0912 145.628 76.082 145.566 76.0857C145.504 76.0895 145.443 76.106 145.387 76.1343C145.152 76.2503 144.928 76.3876 144.716 76.5444C144.502 76.7014 144.302 76.8771 144.117 77.0696C143.312 77.9089 142.839 79.0328 142.79 80.2187C142.782 80.4304 142.787 80.6424 142.806 80.8533C142.824 81.0644 142.855 81.274 142.9 81.4808C142.932 81.6019 143.008 81.7054 143.111 81.7698C143.214 81.8342 143.338 81.8546 143.455 81.8268C143.573 81.7989 143.675 81.7249 143.742 81.6201C143.808 81.5154 143.834 81.3879 143.812 81.2642C143.776 81.0996 143.751 80.9327 143.736 80.7645C143.722 80.5962 143.718 80.4271 143.726 80.2584C143.752 79.683 143.903 79.1214 144.169 78.6162C144.434 78.1111 144.806 77.6757 145.257 77.3432C145.425 77.2197 145.604 77.1116 145.79 77.0204Z" fill="#747F81"/>
<path fill-rule="evenodd" clip-rule="evenodd" d="M53.475 72.8856V99.0921C53.483 101.004 54.2462 102.835 55.5986 104.188C56.951 105.54 58.783 106.303 60.6958 106.312H75.7993V113.324H60.6958C56.9224 113.315 53.3062 111.813 50.6382 109.146C47.9703 106.479 46.4678 102.864 46.4596 99.0921V72.8856H53.475Z" fill="#B3B8BA"/>
<path fill-rule="evenodd" clip-rule="evenodd" d="M46.4597 70.2726H53.4751V99.0944C53.4837 101.006 54.2472 102.837 55.5995 104.188C56.9518 105.54 58.7835 106.303 60.6959 106.312H61.0132V113.324H60.6959C56.9226 113.315 53.3063 111.813 50.6384 109.146C47.9704 106.479 46.4679 102.864 46.4597 99.0921V70.2726Z" fill="#B3B8BA"/>
<path fill-rule="evenodd" clip-rule="evenodd" d="M46.8798 72.1383L50.8817 72.1763V99.1957C50.8817 104.534 55.2517 108.903 60.5934 108.903V112.902H60.6953C57.0335 112.894 53.524 111.436 50.9349 108.848C48.3457 106.26 46.8877 102.752 46.8798 99.0915V72.1383Z" fill="#D3D6D8"/>
<path fill-rule="evenodd" clip-rule="evenodd" d="M60.5938 109.705V112.303H60.4416C53.3128 112.303 47.479 106.472 47.479 99.3459V72.5349H50.0779V99.6554C50.0779 105.182 54.6024 109.705 60.1319 109.705H60.5938Z" fill="#EAECEC"/>
<path fill-rule="evenodd" clip-rule="evenodd" d="M52.4856 107.49C52.4527 107.458 52.4138 107.432 52.3711 107.415C52.3284 107.398 52.2828 107.39 52.2368 107.391C52.1909 107.391 52.1455 107.401 52.1032 107.419C52.061 107.437 52.0228 107.463 51.9907 107.496C51.9586 107.529 51.9334 107.568 51.9163 107.611C51.8993 107.653 51.8908 107.699 51.8914 107.745C51.892 107.791 51.9017 107.836 51.9198 107.878C51.938 107.921 51.9642 107.959 51.9972 107.991C52.6505 108.628 53.3738 109.189 54.1533 109.664C54.9295 110.137 55.7573 110.52 56.6206 110.805L56.8252 110.872L57.0322 110.933C57.0762 110.946 57.1224 110.95 57.168 110.945C57.2136 110.94 57.2578 110.926 57.298 110.904C57.3382 110.882 57.3736 110.852 57.4023 110.816C57.431 110.78 57.4523 110.739 57.4651 110.695C57.4779 110.651 57.4819 110.605 57.4768 110.559C57.4718 110.514 57.4578 110.47 57.4357 110.429C57.4136 110.389 57.3838 110.354 57.3479 110.325C57.3121 110.297 57.271 110.275 57.227 110.262L57.0329 110.203L56.8397 110.142C56.0273 109.872 55.2483 109.51 54.5177 109.064C53.7829 108.615 53.1012 108.085 52.4856 107.484V107.49ZM59.0407 110.636C58.9503 110.629 58.8605 110.657 58.7903 110.714C58.7202 110.772 58.675 110.854 58.6644 110.944C58.6537 111.034 58.6784 111.125 58.7333 111.197C58.7882 111.269 58.8689 111.318 58.9586 111.332C59.1868 111.358 59.4242 111.38 59.6676 111.394C59.9111 111.408 60.15 111.416 60.3797 111.416C60.4728 111.416 60.562 111.379 60.6277 111.313C60.6935 111.248 60.7305 111.158 60.7305 111.065C60.7305 110.972 60.6935 110.883 60.6277 110.818C60.562 110.752 60.4728 110.715 60.3797 110.715C60.1454 110.715 59.9233 110.708 59.7087 110.696C59.4942 110.684 59.2674 110.665 59.0407 110.636Z" fill="white"/>
<path fill-rule="evenodd" clip-rule="evenodd" d="M46.8804 96.2474H50.8814V99.1957C50.8814 104.534 55.2515 108.903 60.5931 108.903H74.1812V112.902H60.6959C57.034 112.894 53.5246 111.436 50.9354 108.848C48.3462 106.26 46.8882 102.752 46.8804 99.0915V96.2474Z" fill="#D3D6D8"/>
<path fill-rule="evenodd" clip-rule="evenodd" d="M74.1812 109.705V112.303H60.4417C53.3122 112.303 47.4791 106.472 47.4791 99.3459V96.2462H50.078V99.6554C50.078 105.182 54.6025 109.705 60.1321 109.705H74.1812Z" fill="#EAECEC"/>
<path fill-rule="evenodd" clip-rule="evenodd" d="M52.4856 107.49C52.4527 107.458 52.4138 107.432 52.3711 107.415C52.3284 107.398 52.2828 107.39 52.2368 107.391C52.1909 107.391 52.1455 107.401 52.1032 107.419C52.061 107.437 52.0228 107.463 51.9907 107.496C51.9586 107.529 51.9334 107.568 51.9163 107.611C51.8993 107.653 51.8908 107.699 51.8914 107.745C51.892 107.791 51.9017 107.836 51.9198 107.878C51.938 107.921 51.9642 107.959 51.9972 107.991C52.6505 108.628 53.3738 109.189 54.1533 109.664C54.9295 110.137 55.7573 110.52 56.6206 110.805L56.8252 110.872L57.0322 110.933C57.0762 110.946 57.1224 110.95 57.168 110.945C57.2136 110.94 57.2578 110.926 57.298 110.904C57.3382 110.882 57.3736 110.852 57.4023 110.816C57.431 110.78 57.4523 110.739 57.4651 110.695C57.4779 110.651 57.4819 110.605 57.4768 110.559C57.4718 110.514 57.4578 110.47 57.4357 110.429C57.4136 110.389 57.3838 110.354 57.3479 110.325C57.3121 110.297 57.271 110.275 57.227 110.262L57.0329 110.203L56.8397 110.142C56.0273 109.872 55.2483 109.51 54.5177 109.064C53.7829 108.615 53.1012 108.085 52.4856 107.484V107.49ZM59.0407 110.636C58.9503 110.629 58.8605 110.657 58.7903 110.714C58.7202 110.772 58.675 110.854 58.6644 110.944C58.6537 111.034 58.6784 111.125 58.7333 111.197C58.7882 111.269 58.8689 111.318 58.9586 111.332C59.1868 111.358 59.4242 111.38 59.6676 111.394C59.9111 111.408 60.15 111.416 60.3797 111.416C60.4728 111.416 60.562 111.379 60.6277 111.313C60.6935 111.248 60.7305 111.158 60.7305 111.065C60.7305 110.972 60.6935 110.883 60.6277 110.818C60.562 110.752 60.4728 110.715 60.3797 110.715C60.1454 110.715 59.9233 110.708 59.7087 110.696C59.4942 110.684 59.2674 110.665 59.0407 110.636Z" fill="white"/>
<path fill-rule="evenodd" clip-rule="evenodd" d="M78.4985 114.541V105.092C78.4979 104.838 78.3966 104.594 78.2167 104.414C78.0368 104.234 77.7929 104.132 77.5384 104.131H75.7315C75.4768 104.132 75.2328 104.233 75.0527 104.413C74.8726 104.593 74.7712 104.837 74.7706 105.092V114.541C74.7712 114.796 74.8729 115.041 75.0535 115.221C75.2341 115.401 75.4787 115.502 75.7338 115.502H77.5407C77.7948 115.501 78.0381 115.399 78.2175 115.219C78.3969 115.039 78.4979 114.796 78.4985 114.541Z" fill="#273335"/>
<path d="M78.1348 114.54V105.091C78.1348 104.933 78.0722 104.782 77.9607 104.671C77.8493 104.559 77.6982 104.497 77.5406 104.497H75.7344C75.5766 104.497 75.4253 104.559 75.3137 104.671C75.2022 104.782 75.1395 104.934 75.1395 105.091V114.54C75.1395 114.698 75.2022 114.849 75.3137 114.961C75.4253 115.072 75.5766 115.135 75.7344 115.135H77.5406C77.6982 115.135 77.8494 115.072 77.9608 114.96C78.0722 114.849 78.1348 114.698 78.1348 114.54Z" fill="#455456"/>
<path fill-rule="evenodd" clip-rule="evenodd" d="M77.7959 112.431V107.69C77.7959 107.474 77.6513 107.297 77.4748 107.297H76.5208C76.3443 107.297 76.1997 107.474 76.1997 107.69V112.431C76.1997 112.646 76.3443 112.822 76.5208 112.822H77.4748C77.6513 112.822 77.7959 112.646 77.7959 112.431Z" fill="#747F81"/>
<path fill-rule="evenodd" clip-rule="evenodd" d="M75.7991 105.386V114.885C75.7993 114.971 75.8183 115.056 75.8546 115.135H75.7215C75.5631 115.134 75.4113 115.071 75.2993 114.959C75.1873 114.847 75.1241 114.695 75.1235 114.537V105.036C75.1241 104.877 75.1873 104.726 75.2993 104.614C75.4113 104.502 75.5631 104.439 75.7215 104.438H77.5375C77.6501 104.439 77.7603 104.471 77.8555 104.531C77.9508 104.591 78.0272 104.677 78.0762 104.778V104.786H76.394C76.2358 104.788 76.0844 104.852 75.973 104.964C75.8616 105.076 75.7991 105.228 75.7991 105.386Z" fill="#273335"/>
<path d="M77.7959 113.597V114.476C77.7959 114.639 77.6637 114.771 77.5007 114.771H76.4934C76.3304 114.771 76.1982 114.639 76.1982 114.476V113.597C76.1982 113.434 76.3304 113.302 76.4934 113.302H77.5007C77.6637 113.302 77.7959 113.434 77.7959 113.597Z" fill="#747F81"/>
<path d="M77.5552 113.979V114.375C77.5552 114.448 77.4956 114.508 77.422 114.508H76.9678C76.8943 114.508 76.8347 114.448 76.8347 114.375V113.979C76.8347 113.905 76.8943 113.845 76.9678 113.845H77.422C77.4956 113.845 77.5552 113.905 77.5552 113.979Z" fill="#919898"/>
<path d="M77.5552 110.879V112.414C77.5552 112.494 77.4905 112.559 77.4106 112.559H76.9792C76.8994 112.559 76.8347 112.494 76.8347 112.414V110.879C76.8347 110.799 76.8994 110.734 76.9792 110.734H77.4106C77.4905 110.734 77.5552 110.799 77.5552 110.879Z" fill="#919898"/>
<path d="M77.5552 110.002V110.398C77.5552 110.472 77.4956 110.531 77.422 110.531H76.9678C76.8943 110.531 76.8347 110.472 76.8347 110.398V110.002C76.8347 109.928 76.8943 109.869 76.9678 109.869H77.422C77.4956 109.869 77.5552 109.928 77.5552 110.002Z" fill="#919898"/>
<path fill-rule="evenodd" clip-rule="evenodd" d="M71.2662 105.455C70.2612 104.45 68.9809 103.765 67.587 103.488C66.1931 103.21 64.7483 103.353 63.4353 103.897C62.1223 104.441 61.0001 105.362 60.2105 106.545C59.4209 107.727 58.9995 109.117 58.9995 110.538C58.9995 111.96 59.4209 113.35 60.2105 114.532C61.0001 115.715 62.1223 116.636 63.4353 117.18C64.7483 117.724 66.1931 117.867 67.587 117.589C68.9809 117.312 70.2612 116.627 71.2662 115.622C71.9334 114.954 72.4627 114.162 72.8238 113.29C73.185 112.417 73.3708 111.483 73.3708 110.538C73.3708 109.594 73.185 108.66 72.8238 107.787C72.4627 106.915 71.9334 106.123 71.2662 105.455Z" fill="#273335"/>
<path fill-rule="evenodd" clip-rule="evenodd" d="M69.966 106.754C69.2179 106.006 68.2649 105.496 67.2275 105.29C66.1901 105.084 65.1148 105.19 64.1376 105.595C63.1604 106 62.3252 106.686 61.7377 107.566C61.1501 108.446 60.8364 109.48 60.8364 110.538C60.8364 111.596 61.1501 112.631 61.7377 113.511C62.3252 114.391 63.1604 115.076 64.1376 115.482C65.1148 115.887 66.1901 115.993 67.2275 115.786C68.2649 115.58 69.2179 115.071 69.966 114.323C70.4627 113.826 70.8568 113.236 71.1256 112.586C71.3945 111.937 71.5328 111.241 71.5328 110.538C71.5328 109.835 71.3945 109.14 71.1256 108.49C70.8568 107.841 70.4627 107.251 69.966 106.754Z" fill="#455456"/>
<path fill-rule="evenodd" clip-rule="evenodd" d="M66.1847 108.971C65.7751 108.98 65.3853 109.149 65.0988 109.442C64.8123 109.735 64.6519 110.128 64.6519 110.538C64.6519 110.948 64.8123 111.342 65.0988 111.635C65.3853 111.928 65.7751 112.097 66.1847 112.106H77.5772C77.9868 112.097 78.3766 111.928 78.6631 111.635C78.9496 111.342 79.11 110.948 79.11 110.538C79.11 110.128 78.9496 109.735 78.6631 109.442C78.3766 109.149 77.9868 108.98 77.5772 108.971H66.1847Z" fill="#E74657"/>
<path fill-rule="evenodd" clip-rule="evenodd" d="M68.012 108.709C67.6505 108.347 67.1898 108.101 66.6882 108.001C66.1866 107.901 65.6666 107.952 65.1941 108.148C64.7216 108.344 64.3177 108.675 64.0335 109.101C63.7493 109.526 63.5977 110.026 63.5977 110.538C63.5977 111.05 63.7493 111.55 64.0335 111.975C64.3177 112.401 64.7216 112.732 65.1941 112.928C65.6666 113.124 66.1866 113.175 66.6882 113.075C67.1898 112.975 67.6505 112.728 68.012 112.367C68.4966 111.881 68.7688 111.224 68.7688 110.538C68.7688 109.852 68.4966 109.194 68.012 108.709Z" fill="#F5AB29"/>
<path fill-rule="evenodd" clip-rule="evenodd" d="M67.8851 109.774C67.7265 109.615 67.5245 109.507 67.3045 109.463C67.0845 109.419 66.8565 109.442 66.6493 109.528C66.4421 109.614 66.265 109.759 66.1404 109.945C66.0157 110.132 65.9492 110.351 65.9492 110.576C65.9492 110.8 66.0157 111.019 66.1404 111.206C66.265 111.393 66.4421 111.538 66.6493 111.624C66.8565 111.71 67.0845 111.732 67.3045 111.688C67.5245 111.644 67.7265 111.536 67.8851 111.378C68.0976 111.165 68.2169 110.877 68.2169 110.576C68.2169 110.275 68.0976 109.987 67.8851 109.774Z" fill="#F4CD72"/>
<path fill-rule="evenodd" clip-rule="evenodd" d="M71.3342 109.469C71.2277 109.466 71.1217 109.484 71.0223 109.522C70.923 109.561 70.8324 109.619 70.7559 109.693C70.6794 109.767 70.6186 109.856 70.5771 109.954C70.5356 110.052 70.5142 110.158 70.5142 110.265C70.5142 110.371 70.5356 110.477 70.5771 110.575C70.6186 110.673 70.6794 110.762 70.7559 110.836C70.8324 110.91 70.923 110.968 71.0223 111.007C71.1217 111.045 71.2277 111.063 71.3342 111.06H77.1138C77.3204 111.054 77.5164 110.967 77.6603 110.819C77.8041 110.67 77.8846 110.471 77.8846 110.265C77.8846 110.058 77.8041 109.859 77.6603 109.711C77.5164 109.562 77.3204 109.476 77.1138 109.469H71.3342Z" fill="#EB7080"/>
<path fill-rule="evenodd" clip-rule="evenodd" d="M67.3715 107.129C67.489 107.17 67.6181 107.164 67.7305 107.11C67.8429 107.056 67.9293 106.96 67.9707 106.842C68.0122 106.725 68.0052 106.595 67.9515 106.483C67.8977 106.371 67.8015 106.284 67.684 106.243C67.4952 106.178 67.3024 106.125 67.1068 106.085C66.9109 106.045 66.7125 106.017 66.5129 106.002C66.3916 105.998 66.2733 106.041 66.1831 106.122C66.0928 106.204 66.0375 106.317 66.0289 106.438C66.0202 106.559 66.0588 106.679 66.1366 106.772C66.2144 106.865 66.3253 106.925 66.446 106.938C66.6044 106.949 66.7619 106.97 66.9175 107.002C67.0722 107.034 67.2247 107.077 67.3738 107.129H67.3715ZM64.6422 107.277C64.6986 107.251 64.7493 107.214 64.7913 107.168C64.8334 107.122 64.866 107.068 64.8872 107.01C64.9084 106.952 64.9178 106.89 64.9149 106.827C64.912 106.765 64.8968 106.704 64.8702 106.648C64.8436 106.592 64.8061 106.542 64.76 106.5C64.7138 106.459 64.6598 106.427 64.6012 106.406C64.5426 106.385 64.4805 106.377 64.4185 106.38C64.3564 106.384 64.2957 106.4 64.2399 106.427C64.005 106.538 63.7803 106.67 63.5684 106.82C63.3547 106.971 63.1542 107.139 62.9691 107.324C62.1645 108.129 61.6912 109.207 61.6429 110.344C61.634 110.547 61.6391 110.751 61.6581 110.953C61.6762 111.155 61.7077 111.356 61.7524 111.555C61.7845 111.671 61.8602 111.77 61.9636 111.832C62.067 111.894 62.1903 111.913 62.3077 111.886C62.4252 111.86 62.5278 111.789 62.5944 111.688C62.6609 111.588 62.6862 111.466 62.6649 111.347C62.6288 111.189 62.6034 111.029 62.5889 110.868C62.5746 110.706 62.571 110.544 62.5782 110.382C62.6043 109.83 62.7557 109.292 63.0211 108.807C63.2865 108.323 63.6589 107.905 64.1098 107.586C64.2779 107.468 64.456 107.364 64.6422 107.277Z" fill="#747F81"/>
<path fill-rule="evenodd" clip-rule="evenodd" d="M159.698 147.388V121.181C159.69 119.269 158.927 117.438 157.575 116.086C156.222 114.734 154.39 113.97 152.478 113.961H137.374V106.949H152.478C156.251 106.958 159.867 108.46 162.535 111.128C165.203 113.795 166.706 117.41 166.714 121.181V147.388H159.698Z" fill="#B3B8BA"/>
<path fill-rule="evenodd" clip-rule="evenodd" d="M166.713 150.001H159.698V121.179C159.689 119.268 158.926 117.437 157.573 116.085C156.221 114.733 154.389 113.97 152.477 113.961H152.16V106.949H152.477C156.25 106.958 159.867 108.46 162.534 111.128C165.202 113.795 166.705 117.41 166.713 121.181V150.001Z" fill="#B3B8BA"/>
<path fill-rule="evenodd" clip-rule="evenodd" d="M166.293 148.133L162.291 148.095V121.076C162.291 115.737 157.921 111.368 152.579 111.368V107.369H152.478C156.139 107.377 159.649 108.835 162.238 111.423C164.827 114.012 166.285 117.52 166.293 121.18V148.133Z" fill="#D3D6D8"/>
<path fill-rule="evenodd" clip-rule="evenodd" d="M152.579 110.567V107.969H152.731C159.86 107.969 165.694 113.799 165.694 120.926V147.737H163.095V120.616C163.095 115.089 158.57 110.567 153.041 110.567H152.579Z" fill="#EAECEC"/>
<path fill-rule="evenodd" clip-rule="evenodd" d="M160.687 112.782C160.72 112.814 160.759 112.839 160.802 112.856C160.844 112.873 160.89 112.882 160.936 112.881C160.982 112.88 161.027 112.871 161.07 112.853C161.112 112.834 161.15 112.808 161.182 112.775C161.214 112.742 161.239 112.703 161.257 112.661C161.274 112.618 161.282 112.573 161.281 112.527C161.281 112.481 161.271 112.435 161.253 112.393C161.235 112.351 161.209 112.313 161.176 112.281C160.522 111.643 159.799 111.082 159.02 110.608C158.243 110.135 157.416 109.752 156.552 109.467L156.348 109.4L156.141 109.338C156.097 109.326 156.05 109.322 156.005 109.327C155.959 109.332 155.915 109.346 155.875 109.368C155.835 109.39 155.799 109.42 155.771 109.455C155.742 109.491 155.721 109.532 155.708 109.576C155.695 109.62 155.691 109.667 155.696 109.712C155.701 109.758 155.715 109.802 155.737 109.842C155.759 109.882 155.789 109.918 155.825 109.946C155.861 109.975 155.902 109.996 155.946 110.009L156.14 110.068L156.333 110.129C157.146 110.4 157.925 110.761 158.655 111.208C159.39 111.656 160.072 112.186 160.687 112.788V112.782ZM154.132 109.636C154.223 109.643 154.312 109.615 154.383 109.557C154.453 109.5 154.498 109.417 154.508 109.327C154.519 109.237 154.494 109.147 154.44 109.074C154.385 109.002 154.304 108.954 154.214 108.94C153.986 108.913 153.749 108.892 153.505 108.878C153.262 108.863 153.023 108.855 152.793 108.855C152.7 108.855 152.611 108.892 152.545 108.958C152.479 109.024 152.442 109.113 152.442 109.206C152.442 109.299 152.479 109.388 152.545 109.454C152.611 109.52 152.7 109.557 152.793 109.557C153.027 109.557 153.25 109.563 153.464 109.576C153.679 109.588 153.905 109.607 154.132 109.636Z" fill="white"/>
<path fill-rule="evenodd" clip-rule="evenodd" d="M166.293 124.024H162.292V121.076C162.292 115.737 157.922 111.368 152.58 111.368H138.992V107.369H152.477C156.139 107.377 159.649 108.835 162.238 111.423C164.827 114.012 166.285 117.52 166.293 121.18V124.024Z" fill="#D3D6D8"/>
<path fill-rule="evenodd" clip-rule="evenodd" d="M138.992 110.567V107.969H152.732C159.861 107.969 165.694 113.799 165.694 120.926V124.025H163.095V120.616C163.095 115.089 158.571 110.567 153.041 110.567H138.992Z" fill="#EAECEC"/>
<path fill-rule="evenodd" clip-rule="evenodd" d="M160.687 112.782C160.72 112.814 160.759 112.839 160.802 112.856C160.844 112.873 160.89 112.882 160.936 112.881C160.982 112.88 161.027 112.871 161.07 112.853C161.112 112.834 161.15 112.808 161.182 112.775C161.214 112.742 161.239 112.703 161.257 112.661C161.274 112.618 161.282 112.573 161.281 112.527C161.281 112.481 161.271 112.435 161.253 112.393C161.235 112.351 161.209 112.313 161.176 112.281C160.522 111.643 159.799 111.082 159.02 110.608C158.243 110.135 157.416 109.752 156.552 109.467L156.348 109.4L156.141 109.338C156.097 109.326 156.05 109.322 156.005 109.327C155.959 109.332 155.915 109.346 155.875 109.368C155.835 109.39 155.799 109.42 155.771 109.455C155.742 109.491 155.721 109.532 155.708 109.576C155.695 109.62 155.691 109.667 155.696 109.712C155.701 109.758 155.715 109.802 155.737 109.842C155.759 109.882 155.789 109.918 155.825 109.946C155.861 109.975 155.902 109.996 155.946 110.009L156.14 110.068L156.333 110.129C157.146 110.4 157.925 110.761 158.655 111.208C159.39 111.656 160.072 112.186 160.687 112.788V112.782ZM154.132 109.636C154.223 109.643 154.312 109.615 154.383 109.557C154.453 109.5 154.498 109.417 154.508 109.327C154.519 109.237 154.494 109.147 154.44 109.074C154.385 109.002 154.304 108.954 154.214 108.94C153.986 108.913 153.749 108.892 153.505 108.878C153.262 108.863 153.023 108.855 152.793 108.855C152.7 108.855 152.611 108.892 152.545 108.958C152.479 109.024 152.442 109.113 152.442 109.206C152.442 109.299 152.479 109.388 152.545 109.454C152.611 109.52 152.7 109.557 152.793 109.557C153.027 109.557 153.25 109.563 153.464 109.576C153.679 109.588 153.905 109.607 154.132 109.636Z" fill="white"/>
<path fill-rule="evenodd" clip-rule="evenodd" d="M134.674 105.73V115.18C134.675 115.434 134.776 115.678 134.956 115.858C135.136 116.038 135.38 116.139 135.634 116.14H137.441C137.696 116.139 137.94 116.038 138.12 115.858C138.3 115.678 138.402 115.434 138.402 115.18V105.73C138.402 105.475 138.3 105.231 138.119 105.051C137.939 104.871 137.694 104.77 137.439 104.77H135.632C135.378 104.771 135.135 104.873 134.955 105.053C134.776 105.232 134.675 105.476 134.674 105.73Z" fill="#273335"/>
<path d="M135.039 105.731V115.181C135.039 115.338 135.101 115.49 135.213 115.601C135.324 115.712 135.475 115.775 135.633 115.775H137.439C137.597 115.775 137.748 115.712 137.86 115.601C137.971 115.489 138.034 115.338 138.034 115.18V105.731C138.034 105.574 137.971 105.422 137.86 105.311C137.748 105.199 137.597 105.137 137.439 105.137H135.633C135.475 105.137 135.324 105.2 135.213 105.311C135.101 105.423 135.039 105.574 135.039 105.731Z" fill="#455456"/>
<path fill-rule="evenodd" clip-rule="evenodd" d="M135.377 107.841V112.582C135.377 112.798 135.522 112.974 135.698 112.974H136.652C136.829 112.974 136.973 112.798 136.973 112.582V107.841C136.973 107.626 136.829 107.449 136.652 107.449H135.698C135.522 107.449 135.377 107.626 135.377 107.841Z" fill="#747F81"/>
<path fill-rule="evenodd" clip-rule="evenodd" d="M137.374 114.885V105.387C137.374 105.3 137.355 105.215 137.318 105.137H137.451C137.61 105.137 137.762 105.2 137.874 105.312C137.986 105.424 138.049 105.576 138.049 105.734V115.236C138.049 115.394 137.986 115.546 137.874 115.658C137.762 115.77 137.61 115.833 137.451 115.833H135.635C135.523 115.833 135.413 115.801 135.317 115.741C135.222 115.68 135.146 115.595 135.097 115.494V115.485H136.779C136.937 115.484 137.088 115.42 137.2 115.308C137.311 115.195 137.374 115.043 137.374 114.885Z" fill="#273335"/>
<path d="M135.377 106.674V105.795C135.377 105.632 135.509 105.5 135.672 105.5H136.679C136.842 105.5 136.975 105.632 136.975 105.795V106.674C136.975 106.837 136.842 106.969 136.679 106.969H135.672C135.509 106.969 135.377 106.837 135.377 106.674Z" fill="#747F81"/>
<path d="M135.618 106.295V105.899C135.618 105.825 135.677 105.766 135.751 105.766H136.205C136.279 105.766 136.338 105.825 136.338 105.899V106.295C136.338 106.368 136.279 106.428 136.205 106.428H135.751C135.677 106.428 135.618 106.368 135.618 106.295Z" fill="#919898"/>
<path d="M135.618 109.393V107.857C135.618 107.778 135.682 107.713 135.762 107.713H136.194C136.273 107.713 136.338 107.778 136.338 107.857V109.393C136.338 109.473 136.273 109.537 136.194 109.537H135.762C135.682 109.537 135.618 109.473 135.618 109.393Z" fill="#919898"/>
<path d="M135.618 110.27V109.873C135.618 109.8 135.677 109.74 135.751 109.74H136.205C136.279 109.74 136.338 109.8 136.338 109.873V110.27C136.338 110.343 136.279 110.403 136.205 110.403H135.751C135.677 110.403 135.618 110.343 135.618 110.27Z" fill="#919898"/>
<path fill-rule="evenodd" clip-rule="evenodd" d="M154.247 105.491C155.252 106.496 155.937 107.776 156.214 109.17C156.492 110.564 156.349 112.009 155.805 113.322C155.261 114.635 154.34 115.757 153.158 116.547C151.975 117.336 150.585 117.758 149.164 117.758C147.742 117.758 146.352 117.336 145.17 116.547C143.988 115.757 143.066 114.635 142.522 113.322C141.978 112.009 141.836 110.564 142.113 109.17C142.39 107.776 143.075 106.496 144.08 105.491C144.748 104.824 145.54 104.295 146.413 103.933C147.285 103.572 148.22 103.387 149.164 103.387C150.108 103.387 151.043 103.572 151.915 103.933C152.787 104.295 153.579 104.824 154.247 105.491Z" fill="#273335"/>
<path fill-rule="evenodd" clip-rule="evenodd" d="M152.948 106.79C153.696 107.538 154.205 108.491 154.411 109.529C154.618 110.566 154.512 111.642 154.107 112.619C153.702 113.596 153.016 114.431 152.136 115.019C151.256 115.606 150.222 115.92 149.163 115.92C148.105 115.92 147.071 115.606 146.191 115.019C145.311 114.431 144.625 113.596 144.22 112.619C143.815 111.642 143.709 110.566 143.915 109.529C144.122 108.491 144.631 107.538 145.379 106.79C145.876 106.294 146.466 105.9 147.115 105.631C147.765 105.362 148.461 105.224 149.163 105.224C149.866 105.224 150.562 105.362 151.211 105.631C151.861 105.9 152.451 106.294 152.948 106.79Z" fill="#455456"/>
<path fill-rule="evenodd" clip-rule="evenodd" d="M150.731 110.573C150.722 110.982 150.553 111.372 150.26 111.659C149.967 111.945 149.574 112.105 149.164 112.105C148.754 112.105 148.36 111.945 148.067 111.659C147.774 111.372 147.605 110.982 147.596 110.573V99.1801C147.605 98.7705 147.774 98.3807 148.067 98.0942C148.36 97.8077 148.754 97.6473 149.164 97.6473C149.574 97.6473 149.967 97.8077 150.26 98.0942C150.553 98.3807 150.722 98.7705 150.731 99.1801V110.573Z" fill="#E74657"/>
<path fill-rule="evenodd" clip-rule="evenodd" d="M150.992 108.746C151.354 109.107 151.601 109.568 151.701 110.07C151.801 110.571 151.749 111.091 151.554 111.564C151.358 112.036 151.026 112.44 150.601 112.724C150.176 113.008 149.675 113.16 149.164 113.16C148.652 113.16 148.152 113.008 147.726 112.724C147.301 112.44 146.97 112.036 146.774 111.564C146.578 111.091 146.527 110.571 146.627 110.07C146.727 109.568 146.973 109.107 147.335 108.746C147.82 108.261 148.478 107.989 149.164 107.989C149.85 107.989 150.507 108.261 150.992 108.746Z" fill="#F5AB29"/>
<path fill-rule="evenodd" clip-rule="evenodd" d="M149.926 108.871C150.085 109.029 150.193 109.231 150.237 109.451C150.281 109.671 150.258 109.899 150.173 110.107C150.087 110.314 149.941 110.491 149.755 110.616C149.568 110.74 149.349 110.807 149.124 110.807C148.9 110.807 148.681 110.74 148.494 110.616C148.308 110.491 148.162 110.314 148.076 110.107C147.991 109.899 147.968 109.671 148.012 109.451C148.056 109.231 148.164 109.029 148.323 108.871C148.535 108.658 148.824 108.539 149.124 108.539C149.425 108.539 149.714 108.658 149.926 108.871Z" fill="#F4CD72"/>
<path fill-rule="evenodd" clip-rule="evenodd" d="M150.233 105.422C150.236 105.529 150.218 105.635 150.18 105.734C150.141 105.833 150.083 105.924 150.009 106C149.935 106.077 149.846 106.138 149.748 106.179C149.65 106.221 149.544 106.242 149.438 106.242C149.331 106.242 149.226 106.221 149.127 106.179C149.029 106.138 148.94 106.077 148.866 106C148.792 105.924 148.734 105.833 148.696 105.734C148.657 105.635 148.639 105.529 148.642 105.422V99.6426C148.649 99.436 148.735 99.24 148.884 99.0961C149.032 98.9522 149.231 98.8717 149.438 98.8717C149.644 98.8717 149.843 98.9522 149.992 99.0961C150.14 99.24 150.227 99.436 150.233 99.6426V105.422Z" fill="#EB7080"/>
<path fill-rule="evenodd" clip-rule="evenodd" d="M152.573 109.386C152.532 109.269 152.539 109.14 152.592 109.027C152.646 108.915 152.742 108.829 152.86 108.787C152.978 108.746 153.107 108.753 153.219 108.806C153.332 108.86 153.418 108.956 153.46 109.074C153.524 109.263 153.577 109.455 153.617 109.651C153.657 109.847 153.685 110.045 153.7 110.245C153.704 110.366 153.661 110.484 153.58 110.575C153.499 110.665 153.385 110.72 153.264 110.729C153.143 110.738 153.023 110.699 152.93 110.621C152.837 110.543 152.777 110.433 152.764 110.312C152.753 110.153 152.732 109.996 152.7 109.84C152.668 109.686 152.626 109.533 152.573 109.384V109.386ZM152.426 112.116C152.452 112.059 152.489 112.009 152.534 111.966C152.58 111.924 152.634 111.892 152.692 111.871C152.751 111.849 152.813 111.84 152.875 111.843C152.937 111.846 152.998 111.861 153.054 111.888C153.11 111.914 153.16 111.952 153.202 111.998C153.244 112.044 153.276 112.098 153.296 112.157C153.317 112.215 153.326 112.277 153.322 112.339C153.318 112.401 153.303 112.462 153.275 112.518C153.164 112.753 153.032 112.977 152.882 113.189C152.731 113.403 152.563 113.604 152.378 113.789C151.573 114.593 150.495 115.067 149.358 115.115C149.155 115.124 148.952 115.119 148.749 115.1C148.547 115.082 148.346 115.05 148.148 115.005C148.031 114.973 147.932 114.898 147.87 114.794C147.809 114.691 147.789 114.568 147.816 114.45C147.842 114.333 147.913 114.23 148.014 114.163C148.114 114.097 148.237 114.072 148.355 114.093C148.513 114.129 148.673 114.154 148.835 114.169C148.996 114.183 149.158 114.187 149.32 114.18C149.872 114.154 150.41 114.002 150.895 113.737C151.379 113.471 151.797 113.099 152.116 112.648C152.234 112.48 152.338 112.302 152.426 112.116Z" fill="#747F81"/>
<path d="M54.0615 83.7213V76.709H79.0105V83.7213H54.0615Z" fill="#B3B8BA"/>
<path fill-rule="evenodd" clip-rule="evenodd" d="M55.6435 83.2993H77.4288C77.5488 83.2987 77.6638 83.2009 77.7487 83.0272C77.8336 82.8535 77.8815 82.6181 77.8819 82.3723V78.0559C77.8816 77.8101 77.8337 77.5746 77.7488 77.4008C77.6639 77.2271 77.5489 77.1293 77.4288 77.1289H55.6435C55.5235 77.1293 55.4084 77.2271 55.3235 77.4008C55.2386 77.5746 55.1907 77.8101 55.1904 78.0559V82.3723C55.1908 82.6181 55.2387 82.8535 55.3236 83.0272C55.4085 83.2009 55.5235 83.2987 55.6435 83.2993Z" fill="#D3D6D8"/>
<path fill-rule="evenodd" clip-rule="evenodd" d="M55.6273 79.9984H77.4457C77.4915 79.998 77.5355 79.9606 77.5679 79.8942C77.6004 79.8279 77.6188 79.738 77.6191 79.644V77.9938C77.6189 77.8997 77.6006 77.8096 77.5681 77.7431C77.5356 77.6766 77.4916 77.6391 77.4457 77.6387H55.6273C55.5814 77.6393 55.5376 77.6769 55.5052 77.7434C55.4729 77.81 55.4547 77.8999 55.4546 77.9938V79.644C55.4548 79.7378 55.473 79.8275 55.5054 79.8939C55.5377 79.9602 55.5815 79.9978 55.6273 79.9984Z" fill="#B3B8BA"/>
<path d="M55.4531 81.6125V81.6118C55.4531 81.0129 55.6902 80.5273 55.9827 80.5273H77.0888C77.3813 80.5273 77.6184 81.0129 77.6184 81.6118V81.6125C77.6184 82.2114 77.3813 82.697 77.0888 82.697H55.9827C55.6902 82.697 55.4531 82.2114 55.4531 81.6125Z" fill="#EAECEC"/>
<path fill-rule="evenodd" clip-rule="evenodd" d="M56.2069 82.4322H64.9338C64.9862 82.4318 65.0363 82.389 65.0733 82.3132C65.1103 82.2375 65.1312 82.1348 65.1314 82.0276C65.1313 81.9204 65.1105 81.8176 65.0734 81.7418C65.0364 81.6659 64.9862 81.6232 64.9338 81.623H56.2069C56.1549 81.6244 56.1053 81.6676 56.0687 81.7433C56.032 81.819 56.0114 81.9211 56.0112 82.0276C56.0114 82.1341 56.032 82.2362 56.0687 82.3119C56.1053 82.3876 56.1549 82.4308 56.2069 82.4322Z" fill="white"/>
<path fill-rule="evenodd" clip-rule="evenodd" d="M66.9636 82.4322H65.6824C65.6301 82.4318 65.58 82.389 65.5429 82.3132C65.5059 82.2375 65.4851 82.1348 65.4849 82.0276C65.4851 81.9204 65.5059 81.8178 65.5429 81.742C65.58 81.6662 65.6301 81.6234 65.6824 81.623H66.9636C67.016 81.6232 67.0662 81.6659 67.1032 81.7418C67.1402 81.8176 67.1611 81.9204 67.1612 82.0276C67.161 82.1348 67.1401 82.2375 67.1031 82.3132C67.0661 82.389 67.0159 82.4318 66.9636 82.4322Z" fill="white"/>
<path d="M78.1001 84.9393V75.4898C78.1001 74.9593 78.3101 74.5293 78.5691 74.5293H79.4507C79.7098 74.5293 79.9198 74.9593 79.9198 75.4898V84.9393C79.9198 85.4698 79.7098 85.8998 79.4507 85.8998H78.5691C78.3101 85.8998 78.1001 85.4698 78.1001 84.9393Z" fill="#273335"/>
<path fill-rule="evenodd" clip-rule="evenodd" d="M78.2793 75.4912C78.2796 75.3338 78.3102 75.183 78.3645 75.0716C78.4189 74.9602 78.4925 74.8973 78.5693 74.8965H79.4513C79.5281 74.8975 79.6016 74.9605 79.6558 75.0719C79.7101 75.1832 79.7407 75.3339 79.741 75.4912V84.9407C79.7407 85.0981 79.71 85.2489 79.6557 85.3603C79.6014 85.4717 79.5278 85.5346 79.4509 85.5354H78.5693C78.4925 85.5346 78.4189 85.4717 78.3645 85.3603C78.3102 85.2489 78.2796 85.0981 78.2793 84.9407V75.4912Z" fill="#455456"/>
<path fill-rule="evenodd" clip-rule="evenodd" d="M78.4453 77.6006V82.3414C78.4453 82.5574 78.5159 82.7338 78.602 82.7338H79.0685C79.1546 82.7338 79.2252 82.5574 79.2252 82.3414V77.6006C79.2252 77.3854 79.1546 77.209 79.0685 77.209H78.602C78.5159 77.209 78.4453 77.3854 78.4453 77.6006Z" fill="#747F81"/>
<path fill-rule="evenodd" clip-rule="evenodd" d="M79.4196 84.6449V75.1467C79.4195 75.0603 79.4102 74.9749 79.3925 74.8965H79.4575C79.5348 74.8971 79.6089 74.9603 79.6635 75.0722C79.7182 75.1842 79.7491 75.3359 79.7493 75.4942V84.9955C79.7491 85.1538 79.7182 85.3055 79.6635 85.4175C79.6089 85.5294 79.5348 85.5926 79.4575 85.5932H78.571C78.5161 85.5926 78.4623 85.5604 78.4158 85.5003C78.3693 85.4402 78.332 85.3546 78.3081 85.2533V85.2449H79.1296C79.2067 85.2433 79.2805 85.1794 79.3348 85.067C79.3891 84.9547 79.4196 84.803 79.4196 84.6449Z" fill="#273335"/>
<path d="M78.4453 75.5568V76.4313C78.4451 76.4705 78.4486 76.5094 78.4558 76.5458C78.463 76.5821 78.4736 76.6151 78.4871 76.643C78.5006 76.6708 78.5167 76.6928 78.5344 76.7078C78.552 76.7228 78.571 76.7304 78.5902 76.7302H79.0815C79.1005 76.73 79.1193 76.7221 79.1369 76.7069C79.1544 76.6918 79.1703 76.6697 79.1837 76.6419C79.197 76.6142 79.2076 76.5813 79.2147 76.5451C79.2218 76.509 79.2254 76.4703 79.2252 76.4313V75.5568C79.2252 75.4785 79.21 75.4035 79.183 75.3481C79.156 75.2928 79.1193 75.2617 79.0811 75.2617H78.5902C78.5712 75.2615 78.5524 75.269 78.5348 75.2837C78.5172 75.2985 78.5012 75.3202 78.4878 75.3476C78.4743 75.375 78.4637 75.4076 78.4564 75.4435C78.4491 75.4794 78.4453 75.5179 78.4453 75.5568Z" fill="#747F81"/>
<path d="M78.562 76.0527V75.6565C78.562 75.583 78.5911 75.5234 78.627 75.5234H78.8487C78.8846 75.5234 78.9137 75.583 78.9137 75.6565V76.0527C78.9137 76.1262 78.8846 76.1858 78.8487 76.1858H78.627C78.5911 76.1858 78.562 76.1262 78.562 76.0527Z" fill="#919898"/>
<path fill-rule="evenodd" clip-rule="evenodd" d="M78.562 79.1525V77.6171C78.5621 77.5789 78.5696 77.5423 78.5828 77.5152C78.596 77.4881 78.6139 77.4729 78.6326 77.4727H78.8428C78.8615 77.4727 78.8795 77.4879 78.8928 77.5149C78.9061 77.542 78.9136 77.5788 78.9137 77.6171V79.1525C78.9136 79.191 78.9061 79.2278 78.8928 79.255C78.8795 79.2822 78.8615 79.2976 78.8428 79.2978H78.6326C78.6138 79.2976 78.5959 79.2822 78.5827 79.255C78.5694 79.2277 78.562 79.1909 78.562 79.1525Z" fill="#919898"/>
<path d="M78.562 80.0293V79.6331C78.562 79.5596 78.5911 79.5 78.627 79.5H78.8487C78.8846 79.5 78.9137 79.5596 78.9137 79.6331V80.0293C78.9137 80.1028 78.8846 80.1624 78.8487 80.1624H78.627C78.5911 80.1624 78.562 80.1028 78.562 80.0293Z" fill="#919898"/>
<path d="M53.1519 84.9393V75.4898C53.1519 74.9593 53.3618 74.5293 53.6209 74.5293H54.5025C54.7615 74.5293 54.9715 74.9593 54.9715 75.4898V84.9393C54.9715 85.4698 54.7615 85.8998 54.5025 85.8998H53.6209C53.3618 85.8998 53.1519 85.4698 53.1519 84.9393Z" fill="#273335"/>
<path d="M53.3306 84.9407V75.4912C53.3306 75.1627 53.4606 74.8965 53.621 74.8965H54.5026C54.663 74.8965 54.793 75.1627 54.793 75.4912V84.9407C54.793 85.2692 54.663 85.5354 54.5026 85.5354H53.621C53.4606 85.5354 53.3306 85.2692 53.3306 84.9407Z" fill="#455456"/>
<path fill-rule="evenodd" clip-rule="evenodd" d="M53.4966 77.6006V82.3414C53.4966 82.5574 53.5675 82.7338 53.6537 82.7338H54.1197C54.2059 82.7338 54.2768 82.5574 54.2768 82.3414V77.6006C54.2768 77.3854 54.2059 77.209 54.1197 77.209H53.6537C53.5675 77.209 53.4966 77.3854 53.4966 77.6006Z" fill="#747F81"/>
<path fill-rule="evenodd" clip-rule="evenodd" d="M54.471 84.6449V75.1467C54.471 75.0602 54.4618 74.9748 54.4439 74.8965H54.5092C54.5865 74.8973 54.6605 74.9605 54.7152 75.0724C54.7698 75.1844 54.8007 75.3359 54.8011 75.4942V84.9955C54.8007 85.1538 54.7698 85.3053 54.7152 85.4173C54.6605 85.5292 54.5865 85.5924 54.5092 85.5932H53.6228C53.5678 85.5927 53.514 85.5606 53.4675 85.5004C53.421 85.4403 53.3837 85.3547 53.3599 85.2533V85.2449H54.1791C54.2566 85.2443 54.3308 85.1808 54.3855 85.0684C54.4403 84.9559 54.471 84.8037 54.471 84.6449Z" fill="#273335"/>
<path d="M53.4966 75.5568V76.4313C53.4966 76.5096 53.5118 76.5846 53.5388 76.64C53.5658 76.6953 53.6025 76.7264 53.6407 76.7264H54.1323C54.1706 76.7264 54.2073 76.6953 54.2344 76.64C54.2614 76.5847 54.2767 76.5096 54.2768 76.4313V75.5568C54.2768 75.4785 54.2616 75.4035 54.2346 75.3481C54.2076 75.2928 54.1709 75.2617 54.1327 75.2617H53.641C53.6221 75.2616 53.6033 75.2692 53.5858 75.284C53.5683 75.2987 53.5523 75.3205 53.5389 75.3479C53.5255 75.3753 53.5148 75.4078 53.5076 75.4437C53.5003 75.4795 53.4966 75.518 53.4966 75.5568Z" fill="#747F81"/>
<path d="M53.6133 76.0527V75.6565C53.6133 75.583 53.6424 75.5234 53.6783 75.5234H53.9C53.9359 75.5234 53.965 75.583 53.965 75.6565V76.0527C53.965 76.1262 53.9359 76.1858 53.9 76.1858H53.6783C53.6424 76.1858 53.6133 76.1262 53.6133 76.0527Z" fill="#919898"/>
<path d="M53.6133 79.1525V77.6171C53.6133 77.5373 53.6449 77.4727 53.6838 77.4727H53.8944C53.9334 77.4727 53.965 77.5373 53.965 77.6171V79.1525C53.965 79.2323 53.9334 79.297 53.8944 79.297H53.6838C53.6449 79.297 53.6133 79.2323 53.6133 79.1525Z" fill="#919898"/>
<path d="M53.6133 80.0293V79.6331C53.6133 79.5596 53.6424 79.5 53.6783 79.5H53.9C53.9359 79.5 53.965 79.5596 53.965 79.6331V80.0293C53.965 80.1028 53.9359 80.1624 53.9 80.1624H53.6783C53.6424 80.1624 53.6133 80.1028 53.6133 80.0293Z" fill="#919898"/>
<path fill-rule="evenodd" clip-rule="evenodd" d="M70.8993 74.4638C71.9047 75.4688 72.5894 76.7491 72.8668 78.143C73.1441 79.5369 73.0018 80.9817 72.4576 82.2947C71.9135 83.6077 70.9921 84.7299 69.8099 85.5195C68.6277 86.309 67.2378 86.7305 65.816 86.7305C64.3942 86.7305 63.0043 86.309 61.8221 85.5195C60.6399 84.7299 59.7185 83.6077 59.1744 82.2947C58.6303 80.9817 58.4879 79.5369 58.7653 78.143C59.0427 76.7491 59.7273 75.4688 60.7327 74.4638C61.4002 73.7966 62.1927 73.2673 63.0649 72.9061C63.9371 72.545 64.872 72.3592 65.816 72.3592C66.7601 72.3592 67.6949 72.545 68.5671 72.9061C69.4393 73.2673 70.2318 73.7966 70.8993 74.4638Z" fill="#273335"/>
<path fill-rule="evenodd" clip-rule="evenodd" d="M69.5995 75.763C70.3476 76.5111 70.857 77.4641 71.0633 78.5015C71.2696 79.539 71.1636 80.6142 70.7585 81.5914C70.3535 82.5686 69.6677 83.4038 68.7878 83.9914C67.9079 84.579 66.8735 84.8926 65.8153 84.8926C64.7571 84.8926 63.7226 84.579 62.8427 83.9914C61.9629 83.4038 61.277 82.5686 60.872 81.5914C60.467 80.6142 60.3609 79.539 60.5672 78.5015C60.7735 77.4641 61.2829 76.5111 62.031 75.763C62.5279 75.2663 63.1179 74.8722 63.7672 74.6034C64.4165 74.3345 65.1124 74.1962 65.8153 74.1962C66.5181 74.1962 67.214 74.3345 67.8633 74.6034C68.5126 74.8722 69.1026 75.2663 69.5995 75.763Z" fill="#455456"/>
<path fill-rule="evenodd" clip-rule="evenodd" d="M67.3838 79.5453C67.3748 79.9549 67.2056 80.3447 66.9126 80.6312C66.6196 80.9177 66.226 81.0781 65.8161 81.0781C65.4063 81.0781 65.0127 80.9177 64.7197 80.6312C64.4267 80.3447 64.2575 79.9549 64.2485 79.5453V68.1528C64.2575 67.7432 64.4267 67.3534 64.7197 67.0669C65.0127 66.7804 65.4063 66.62 65.8161 66.62C66.226 66.62 66.6196 66.7804 66.9126 67.0669C67.2056 67.3534 67.3748 67.7432 67.3838 68.1528V79.5453Z" fill="#E74657"/>
<path fill-rule="evenodd" clip-rule="evenodd" d="M67.6447 77.7184C68.0066 78.08 68.2531 78.5407 68.353 79.0423C68.4529 79.5439 68.4018 80.0638 68.2061 80.5364C68.0103 81.0089 67.6788 81.4128 67.2534 81.697C66.8279 81.9811 66.3278 82.1328 65.8161 82.1328C65.3044 82.1328 64.8042 81.9811 64.3788 81.697C63.9534 81.4128 63.6219 81.0089 63.4261 80.5364C63.2304 80.0638 63.1792 79.5439 63.2792 79.0423C63.3791 78.5407 63.6256 78.08 63.9875 77.7184C64.4726 77.2338 65.1303 76.9616 65.8161 76.9616C66.5019 76.9616 67.1596 77.2338 67.6447 77.7184Z" fill="#F5AB29"/>
<path fill-rule="evenodd" clip-rule="evenodd" d="M66.5787 77.8435C66.7374 78.002 66.8455 78.204 66.8893 78.424C66.9331 78.644 66.9107 78.872 66.8248 79.0792C66.739 79.2864 66.5936 79.4635 66.4071 79.5882C66.2205 79.7128 66.0011 79.7793 65.7768 79.7793C65.5524 79.7793 65.333 79.7128 65.1465 79.5882C64.9599 79.4635 64.8145 79.2864 64.7287 79.0792C64.6429 78.872 64.6204 78.644 64.6642 78.424C64.7081 78.204 64.8162 78.002 64.9749 77.8435C65.1876 77.631 65.476 77.5116 65.7768 77.5116C66.0775 77.5116 66.3659 77.631 66.5787 77.8435Z" fill="#F4CD72"/>
<path fill-rule="evenodd" clip-rule="evenodd" d="M66.8854 74.3948C66.8887 74.5013 66.8705 74.6073 66.832 74.7067C66.7935 74.806 66.7355 74.8966 66.6613 74.9731C66.5871 75.0496 66.4983 75.1104 66.4002 75.1519C66.302 75.1934 66.1965 75.2148 66.0899 75.2148C65.9834 75.2148 65.8779 75.1934 65.7797 75.1519C65.6816 75.1104 65.5928 75.0496 65.5186 74.9731C65.4444 74.8966 65.3863 74.806 65.3478 74.7067C65.3094 74.6073 65.2912 74.5013 65.2945 74.3948V68.6153C65.3009 68.4086 65.3875 68.2126 65.536 68.0687C65.6845 67.9249 65.8831 67.8444 66.0899 67.8444C66.2967 67.8444 66.4954 67.9249 66.6439 68.0687C66.7924 68.2126 66.879 68.4086 66.8854 68.6153V74.3948Z" fill="#EB7080"/>
<path fill-rule="evenodd" clip-rule="evenodd" d="M69.2255 78.359C69.184 78.2415 69.191 78.1124 69.2448 78C69.2985 77.8876 69.3948 77.8012 69.5123 77.7597C69.6299 77.7183 69.7591 77.7252 69.8715 77.779C69.9839 77.8328 70.0704 77.929 70.1118 78.0464C70.1766 78.2353 70.2292 78.4281 70.2693 78.6236C70.3098 78.8196 70.3375 79.018 70.3523 79.2176C70.3564 79.3389 70.3133 79.4571 70.2321 79.5474C70.1509 79.6377 70.0378 79.6929 69.9166 79.7016C69.7955 79.7103 69.6757 79.6717 69.5824 79.5939C69.4891 79.5161 69.4296 79.4052 69.4165 79.2845C69.4055 79.1261 69.3841 78.9686 69.3526 78.813C69.3204 78.6582 69.278 78.5058 69.2255 78.3567V78.359ZM69.0779 81.0883C69.1039 81.0319 69.1409 80.9812 69.1866 80.9391C69.2324 80.8971 69.286 80.8645 69.3444 80.8433C69.4029 80.8221 69.4649 80.8127 69.527 80.8156C69.5891 80.8185 69.65 80.8337 69.7062 80.8603C69.7623 80.8869 69.8127 80.9243 69.8543 80.9705C69.8959 81.0167 69.9279 81.0706 69.9485 81.1292C69.9691 81.1879 69.9779 81.25 69.9743 81.312C69.9708 81.374 69.9549 81.4347 69.9277 81.4906C69.8165 81.7255 69.6848 81.9502 69.5344 82.1621C69.3838 82.3758 69.2153 82.5762 69.0307 82.7613C68.2257 83.566 67.1478 84.0393 66.0103 84.0876C65.8073 84.0964 65.604 84.0913 65.4017 84.0724C65.1992 84.0543 64.9982 84.0228 64.7999 83.9781C64.6838 83.9459 64.5845 83.8703 64.5227 83.7669C64.4609 83.6634 64.4413 83.5402 64.4681 83.4227C64.4948 83.3053 64.5658 83.2026 64.6662 83.1361C64.7667 83.0696 64.889 83.0443 65.0076 83.0655C65.1655 83.1017 65.3256 83.1271 65.4869 83.1416C65.6483 83.1559 65.8104 83.1594 65.9723 83.1522C66.5242 83.1262 67.0628 82.9747 67.5473 82.7093C68.0318 82.4439 68.4494 82.0716 68.7683 81.6206C68.8868 81.4525 68.9904 81.2744 69.0779 81.0883Z" fill="#747F81"/>
<path d="M46.5103 7.00086V70.4238H53.5257V7.00086H46.5103Z" fill="#B3B8BA"/>
<path fill-rule="evenodd" clip-rule="evenodd" d="M46.9927 64.2557V19.4681C46.9931 18.7622 47.0906 18.0853 47.2639 17.5851C47.4372 17.0848 47.6722 16.8019 47.9178 16.7978H52.2354C52.3576 16.7972 52.4786 16.8659 52.5916 16.9997C52.7046 17.1336 52.8072 17.3302 52.8938 17.5781C52.9803 17.8261 53.049 18.1206 53.096 18.4449C53.1429 18.7692 53.1672 19.1169 53.1674 19.4681V64.2557C53.1668 64.9628 53.0688 65.6404 52.8949 66.1404C52.7209 66.6404 52.4852 66.9221 52.2392 66.9238H47.9178C47.6724 66.9198 47.4374 66.6371 47.2641 66.1374C47.0908 65.6376 46.9933 64.9613 46.9927 64.2557Z" fill="#D3D6D8"/>
<path fill-rule="evenodd" clip-rule="evenodd" d="M50.2969 64.3576V19.371C50.2971 19.1007 50.3345 18.8416 50.4009 18.6502C50.4673 18.4589 50.5574 18.3508 50.6514 18.3497H52.3024C52.3965 18.3503 52.4868 18.458 52.5534 18.6495C52.62 18.8409 52.6575 19.1003 52.6577 19.371V64.3576C52.6575 64.6283 52.62 64.8877 52.5534 65.0791C52.4868 65.2705 52.3965 65.3783 52.3024 65.3789H50.6514C50.5574 65.3778 50.4673 65.2697 50.4009 65.0784C50.3345 64.887 50.2971 64.6279 50.2969 64.3576Z" fill="#B3B8BA"/>
<path fill-rule="evenodd" clip-rule="evenodd" d="M47.5957 62.2581V21.4705C47.5965 20.6447 47.7108 19.8532 47.9138 19.2686C48.1167 18.684 48.3918 18.3537 48.6791 18.3497C48.9667 18.3526 49.2421 18.6824 49.4454 19.2671C49.6487 19.8518 49.7632 20.6439 49.764 21.4705V62.2581C49.7632 63.0847 49.6487 63.8768 49.4454 64.4615C49.2421 65.0462 48.9667 65.376 48.6791 65.3789C48.3918 65.3749 48.1167 65.0446 47.9138 64.46C47.7108 63.8754 47.5965 63.0839 47.5957 62.2581Z" fill="#EAECEC"/>
<path fill-rule="evenodd" clip-rule="evenodd" d="M47.8623 60.942V50.2826C47.8625 49.9745 47.9051 49.6793 47.9808 49.4613C48.0565 49.2432 48.1591 49.1202 48.2663 49.1191C48.3736 49.1196 48.4764 49.2424 48.5523 49.4605C48.6281 49.6786 48.6708 49.9742 48.671 50.2826V60.942C48.6708 61.2504 48.6281 61.546 48.5523 61.7641C48.4764 61.9821 48.3736 62.1049 48.2663 62.1055C48.1591 62.1043 48.0565 61.9813 47.9808 61.7633C47.9051 61.5453 47.8625 61.25 47.8623 60.942Z" fill="white"/>
<path d="M47.8623 38.3248V45.8678C47.8623 46.5103 48.0433 47.0312 48.2667 47.0312C48.49 47.0312 48.671 46.5103 48.671 45.8678V38.3248C48.671 37.6822 48.49 37.1613 48.2667 37.1613C48.0433 37.1613 47.8623 37.6822 47.8623 38.3248Z" fill="white"/>
<path d="M44.0264 9.04948V12.0794C44.0264 12.9697 44.4566 13.6914 44.9873 13.6914H54.4411C54.9717 13.6914 55.402 12.9697 55.402 12.0794V9.04948C55.402 8.15921 54.9717 7.43751 54.4411 7.43751H44.9873C44.4566 7.43751 44.0264 8.15921 44.0264 9.04948Z" fill="#273335"/>
<path d="M44.3921 9.04815V12.0781C44.3921 12.6293 44.6585 13.0762 44.987 13.0762H54.4408C54.7694 13.0762 55.0358 12.6293 55.0358 12.0781V9.04815C55.0358 8.49693 54.7694 8.05008 54.4408 8.05008H44.987C44.6585 8.05008 44.3921 8.49693 44.3921 9.04815Z" fill="#455456"/>
<path fill-rule="evenodd" clip-rule="evenodd" d="M47.0996 8.61918H51.8425C52.0578 8.61918 52.2343 8.86168 52.2343 9.15778V10.7583C52.2343 11.0544 52.0578 11.2969 51.8425 11.2969H47.0996C46.8835 11.2969 46.707 11.0544 46.707 10.7583V9.15523C46.707 8.86168 46.8835 8.61918 47.0996 8.61918Z" fill="#747F81"/>
<path fill-rule="evenodd" clip-rule="evenodd" d="M54.1472 11.9708H44.6416C44.5554 11.9711 44.4702 11.9392 44.3921 11.8777V12.101C44.3927 12.3669 44.4559 12.6216 44.5679 12.8097C44.6798 12.9978 44.8316 13.1041 44.9901 13.1055H54.4948C54.6533 13.1041 54.8051 12.9978 54.9171 12.8097C55.0291 12.6216 55.0922 12.3669 55.0928 12.101V9.05447C55.0924 8.86566 55.0603 8.68086 55.0004 8.52111C54.9404 8.36135 54.8548 8.23306 54.7535 8.15085L54.7451 8.14447V10.9677C54.7443 11.2333 54.6811 11.4877 54.5691 11.6755C54.4571 11.8634 54.3055 11.9695 54.1472 11.9708Z" fill="#273335"/>
<path d="M44.7568 10.8056V9.11702C44.7568 8.98535 44.788 8.85907 44.8435 8.76596C44.899 8.67285 44.9743 8.62054 45.0528 8.62054H45.9315C46.0098 8.62054 46.0849 8.67271 46.1403 8.76558C46.1956 8.85845 46.2267 8.98441 46.2267 9.11575V10.8056C46.2267 10.9369 46.1956 11.0629 46.1403 11.1557C46.0849 11.2486 46.0098 11.3008 45.9315 11.3008H45.052C44.9737 11.3008 44.8987 11.2486 44.8433 11.1557C44.7879 11.0629 44.7568 10.9369 44.7568 10.8056Z" fill="#747F81"/>
<path d="M45.021 9.24711V10.0091C45.021 10.1324 45.0806 10.2324 45.1541 10.2324H45.5505C45.6241 10.2324 45.6837 10.1324 45.6837 10.0091V9.24711C45.6837 9.12376 45.6241 9.02376 45.5505 9.02376H45.1541C45.0806 9.02376 45.021 9.12376 45.021 9.24711Z" fill="#919898"/>
<path d="M46.9722 9.26626V9.98992C46.9722 10.1239 47.0369 10.2324 47.1167 10.2324H48.6528C48.7326 10.2324 48.7973 10.1239 48.7973 9.98992V9.26626C48.7973 9.13233 48.7326 9.02376 48.6528 9.02376H47.1167C47.0369 9.02376 46.9722 9.13233 46.9722 9.26626Z" fill="#919898"/>
<path d="M48.999 9.24711V10.0091C48.999 10.1324 49.0586 10.2324 49.1322 10.2324H49.5285C49.6021 10.2324 49.6617 10.1324 49.6617 10.0091V9.24711C49.6617 9.12376 49.6021 9.02376 49.5285 9.02376H49.1322C49.0586 9.02376 48.999 9.12376 48.999 9.24711Z" fill="#919898"/>
<path d="M219.674 0.328125H0.73877V7.71225H219.674V0.328125Z" fill="#B3B8BA"/>
<path d="M219.935 148H1V155.384H219.935V148Z" fill="#B3B8BA"/>
<path d="M215.922 1H4.81556C2.75143 1 1.07812 1.40385 1.07812 1.90203V6.09797C1.07812 6.59615 2.75143 7 4.81556 7H215.922C217.986 7 219.66 6.59615 219.66 6.09797V1.90203C219.66 1.40385 217.986 1 215.922 1Z" fill="#D3D6D8"/>
<path d="M216.183 148.672H5.07679C3.01266 148.672 1.33936 149.076 1.33936 149.574V153.77C1.33936 154.268 3.01266 154.672 5.07679 154.672H216.183C218.248 154.672 219.921 154.268 219.921 153.77V149.574C219.921 149.076 218.248 148.672 216.183 148.672Z" fill="#D3D6D8"/>
<path fill-rule="evenodd" clip-rule="evenodd" d="M217.395 4H3.33921C2.95605 3.99974 2.58882 3.95218 2.31788 3.86772C2.04695 3.78325 1.89437 3.66877 1.89355 3.54932V1.45067C1.89519 1.3313 2.04802 1.21697 2.31878 1.13256C2.58954 1.04815 2.9563 1.00051 3.33921 1H217.395C217.779 1.00025 218.146 1.04779 218.418 1.13222C218.689 1.21666 218.842 1.33114 218.844 1.45067V3.54932C218.842 3.66886 218.689 3.78335 218.418 3.86778C218.146 3.95222 217.779 3.99975 217.395 4Z" fill="#B3B8BA"/>
<path fill-rule="evenodd" clip-rule="evenodd" d="M217.656 151.672H3.60044C3.21728 151.672 2.85005 151.624 2.57911 151.54C2.30818 151.455 2.1556 151.341 2.15479 151.221V149.123C2.15642 149.003 2.30925 148.889 2.58001 148.804C2.85077 148.72 3.21753 148.672 3.60044 148.672H217.656C218.04 148.672 218.407 148.72 218.679 148.804C218.95 148.889 219.104 149.003 219.105 149.123V151.221C219.104 151.341 218.95 151.455 218.679 151.54C218.407 151.624 218.04 151.672 217.656 151.672Z" fill="#B3B8BA"/>
<path fill-rule="evenodd" clip-rule="evenodd" d="M213.618 7H6.30069C5.1331 6.99861 4.01449 6.84019 3.18887 6.55929C2.36326 6.27838 1.89763 5.89779 1.89355 5.50053C1.89681 5.10309 2.36209 4.72222 3.18779 4.44109C4.01349 4.15996 5.13256 4.00139 6.30069 4H213.618C214.787 4.00139 215.906 4.15992 216.732 4.44103C217.558 4.72213 218.024 5.10299 218.028 5.50053C218.024 5.89797 217.558 6.27872 216.732 6.55965C215.906 6.84059 214.786 6.99889 213.618 7Z" fill="#EAECEC"/>
<path fill-rule="evenodd" clip-rule="evenodd" d="M213.879 154.672H6.56192C5.39433 154.67 4.27572 154.512 3.45011 154.231C2.62449 153.95 2.15886 153.57 2.15479 153.172C2.15804 152.775 2.62332 152.394 3.44902 152.113C4.27472 151.832 5.39379 151.673 6.56192 151.672H213.879C215.048 151.673 216.167 151.832 216.993 152.113C217.82 152.394 218.285 152.775 218.29 153.172C218.285 153.57 217.819 153.951 216.993 154.232C216.167 154.512 215.047 154.671 213.879 154.672Z" fill="#EAECEC"/>
<path fill-rule="evenodd" clip-rule="evenodd" d="M215.911 6H176.104C175.542 5.99975 175.004 5.94699 174.607 5.85328C174.21 5.75956 173.987 5.63253 173.986 5.5C173.988 5.36754 174.212 5.24065 174.608 5.14699C175.005 5.05333 175.543 5.0005 176.104 5H215.911C216.472 5.0005 217.009 5.05333 217.406 5.14699C217.803 5.24065 218.026 5.36754 218.028 5.5C218.027 5.63253 217.804 5.75956 217.407 5.85328C217.01 5.94699 216.472 5.99975 215.911 6Z" fill="white"/>
<path fill-rule="evenodd" clip-rule="evenodd" d="M216.172 153.672H176.365C175.803 153.672 175.265 153.619 174.868 153.525C174.472 153.431 174.248 153.304 174.247 153.172C174.249 153.039 174.473 152.913 174.87 152.819C175.266 152.725 175.804 152.672 176.365 152.672H216.172C216.733 152.672 217.27 152.725 217.667 152.819C218.064 152.913 218.288 153.039 218.29 153.172C218.289 153.304 218.065 153.431 217.668 153.525C217.271 153.619 216.733 153.672 216.172 153.672Z" fill="white"/>
<path fill-rule="evenodd" clip-rule="evenodd" d="M159.573 6.34773H169.41C169.811 6.34729 170.195 6.30061 170.479 6.2179C170.762 6.13518 170.921 6.02315 170.922 5.90628C170.921 5.78942 170.762 5.67739 170.479 5.59467C170.195 5.51195 169.811 5.46528 169.41 5.46484H159.573C159.172 5.46528 158.788 5.51195 158.505 5.59467C158.221 5.67739 158.062 5.78942 158.061 5.90628C158.062 6.02315 158.221 6.13518 158.505 6.2179C158.788 6.30061 159.172 6.34729 159.573 6.34773Z" fill="white"/>
<path fill-rule="evenodd" clip-rule="evenodd" d="M159.834 154.02H169.671C170.072 154.019 170.456 153.972 170.74 153.89C171.023 153.807 171.182 153.695 171.183 153.578C171.182 153.461 171.023 153.349 170.74 153.267C170.456 153.184 170.072 153.137 169.671 153.137H159.834C159.433 153.137 159.049 153.184 158.766 153.267C158.482 153.349 158.323 153.461 158.322 153.578C158.323 153.695 158.482 153.807 158.766 153.89C159.049 153.972 159.433 154.019 159.834 154.02Z" fill="white"/>
<path fill-rule="evenodd" clip-rule="evenodd" d="M151.726 36.5522H153.195C155.107 36.5602 156.939 37.3237 158.291 38.6764C159.643 40.0291 160.406 41.8615 160.414 43.7745V44.877H167.427V43.773C167.419 39.9994 165.917 36.3827 163.25 33.7143C160.582 31.046 156.967 29.5433 153.195 29.5353H151.726V36.5522Z" fill="#B3B8BA"/>
<path fill-rule="evenodd" clip-rule="evenodd" d="M152.878 29.5368V36.5522H153.195C155.107 36.5602 156.939 37.3237 158.291 38.6764C159.643 40.0291 160.406 41.8615 160.414 43.7745V44.0918H167.426V43.773C167.418 39.9994 165.916 36.3827 163.249 33.7143C160.582 31.0459 156.967 29.5433 153.195 29.5353L152.878 29.5368Z" fill="#B3B8BA"/>
<path fill-rule="evenodd" clip-rule="evenodd" d="M153.299 29.9579V33.959C158.638 33.959 163.006 38.3291 163.006 43.6707H167.006V43.7734C166.998 40.1113 165.541 36.6015 162.952 34.012C160.364 31.4225 156.856 29.9643 153.195 29.9564L153.299 29.9579Z" fill="#D3D6D8"/>
<path fill-rule="evenodd" clip-rule="evenodd" d="M163.81 43.6699H166.407V43.5178C166.407 36.3882 160.578 30.5551 153.45 30.5551H153.298V33.154H153.759C159.287 33.154 163.81 37.6786 163.81 43.2081L163.81 43.6699Z" fill="#EAECEC"/>
<path fill-rule="evenodd" clip-rule="evenodd" d="M161.593 35.5637C161.529 35.4972 161.493 35.4078 161.494 35.3149C161.495 35.2221 161.533 35.1336 161.6 35.0688C161.666 35.0041 161.756 34.9683 161.849 34.9696C161.941 34.9708 162.03 35.0088 162.095 35.0753C162.731 35.7288 163.293 36.452 163.768 37.2314C164.24 38.0078 164.623 38.8356 164.908 39.6987L164.975 39.9034L165.037 40.1103C165.05 40.1544 165.054 40.2005 165.049 40.2461C165.043 40.2917 165.029 40.3359 165.007 40.3761C164.985 40.4163 164.955 40.4517 164.92 40.4804C164.884 40.5091 164.843 40.5304 164.799 40.5432C164.755 40.556 164.709 40.56 164.663 40.5549C164.617 40.5499 164.573 40.5359 164.533 40.5138C164.493 40.4917 164.458 40.4619 164.429 40.4261C164.4 40.3903 164.379 40.3491 164.366 40.3051L164.307 40.1111L164.245 39.9178C163.978 39.1057 163.619 38.3267 163.176 37.5958C162.727 36.8612 162.198 36.1796 161.596 35.5637H161.593ZM164.741 42.1188C164.734 42.0284 164.762 41.9386 164.819 41.8685C164.877 41.7983 164.959 41.7531 165.049 41.7425C165.139 41.7319 165.23 41.7566 165.302 41.8114C165.375 41.8663 165.423 41.947 165.437 42.0367C165.464 42.2654 165.485 42.5018 165.5 42.7457C165.514 42.99 165.521 43.2281 165.521 43.4579C165.521 43.5509 165.484 43.6401 165.419 43.7059C165.353 43.7716 165.264 43.8086 165.171 43.8086C165.078 43.8086 164.988 43.7716 164.923 43.7059C164.857 43.6401 164.82 43.5509 164.82 43.4579C164.82 43.2235 164.814 42.9999 164.801 42.7868C164.788 42.5677 164.768 42.3456 164.741 42.1188Z" fill="white"/>
<path fill-rule="evenodd" clip-rule="evenodd" d="M168.646 47.8203H159.196C158.941 47.8203 158.697 47.7192 158.516 47.5391C158.336 47.3589 158.234 47.1145 158.233 46.8594V45.0525C158.234 44.798 158.335 44.5541 158.515 44.3742C158.695 44.1943 158.939 44.093 159.193 44.0924H168.643C168.897 44.0932 169.141 44.1946 169.321 44.3745C169.5 44.5543 169.602 44.7981 169.603 45.0525V46.8594C169.602 47.1134 169.501 47.3567 169.322 47.5366C169.143 47.7166 168.9 47.8185 168.646 47.8203Z" fill="#273335"/>
<path fill-rule="evenodd" clip-rule="evenodd" d="M168.646 47.4531C168.803 47.4523 168.954 47.3894 169.065 47.2779C169.176 47.1665 169.239 47.0156 169.24 46.8582V45.0513C169.239 44.8939 169.176 44.7432 169.065 44.632C168.954 44.5207 168.803 44.4579 168.646 44.4571H159.196C159.039 44.4579 158.888 44.5207 158.777 44.6319C158.666 44.7432 158.603 44.8938 158.602 45.0513V46.8582C158.602 47.0157 158.665 47.1666 158.777 47.278C158.888 47.3894 159.039 47.4523 159.196 47.4531H168.646Z" fill="#455456"/>
<path fill-rule="evenodd" clip-rule="evenodd" d="M166.533 47.1152H161.793C161.577 47.1152 161.401 46.9707 161.401 46.7942V45.8386C161.401 45.6621 161.577 45.5175 161.793 45.5175H166.533C166.749 45.5175 166.926 45.6621 166.926 45.8386V46.7942C166.926 46.9699 166.75 47.1152 166.533 47.1152Z" fill="#747F81"/>
<path fill-rule="evenodd" clip-rule="evenodd" d="M159.489 45.1182H168.99C169.076 45.1182 169.161 45.1369 169.24 45.173V45.0398C169.239 44.8815 169.176 44.7297 169.064 44.6177C168.952 44.5057 168.801 44.4424 168.643 44.4418H159.145C158.987 44.4424 158.835 44.5056 158.723 44.6177C158.611 44.7297 158.548 44.8814 158.547 45.0398V46.8559C158.548 46.9684 158.58 47.0786 158.64 47.1738C158.7 47.2691 158.785 47.3455 158.887 47.3945H158.895V45.7124C158.896 45.5553 158.96 45.4051 159.071 45.294C159.182 45.1829 159.332 45.1198 159.489 45.1182Z" fill="#273335"/>
<path d="M167.702 47.1152H168.58C168.658 47.1152 168.734 47.0841 168.789 47.0286C168.845 46.973 168.876 46.8978 168.876 46.8193V45.8135C168.876 45.7352 168.845 45.6601 168.789 45.6048C168.734 45.5494 168.659 45.5183 168.581 45.5183H167.701C167.623 45.5183 167.548 45.5494 167.492 45.6048C167.437 45.6601 167.406 45.7352 167.406 45.8135V46.8178C167.405 46.8568 167.413 46.8955 167.428 46.9316C167.442 46.9677 167.464 47.0006 167.492 47.0282C167.519 47.0559 167.552 47.0778 167.588 47.0928C167.624 47.1077 167.663 47.1153 167.702 47.1152Z" fill="#747F81"/>
<path fill-rule="evenodd" clip-rule="evenodd" d="M168.082 46.875H168.478C168.513 46.8748 168.547 46.8606 168.572 46.8355C168.597 46.8104 168.611 46.7765 168.611 46.7411V46.2846C168.611 46.2492 168.597 46.2153 168.572 46.1902C168.547 46.1651 168.513 46.1509 168.478 46.1507H168.082C168.046 46.1509 168.013 46.1651 167.988 46.1902C167.963 46.2153 167.949 46.2492 167.949 46.2846V46.7411C167.949 46.7586 167.952 46.776 167.959 46.7923C167.965 46.8085 167.975 46.8233 167.987 46.8357C168 46.8482 168.015 46.8581 168.031 46.8648C168.047 46.8715 168.064 46.875 168.082 46.875Z" fill="#919898"/>
<path fill-rule="evenodd" clip-rule="evenodd" d="M164.981 46.875H166.516C166.555 46.8748 166.592 46.8594 166.619 46.8322C166.646 46.805 166.661 46.7682 166.662 46.7297V46.2991C166.661 46.2606 166.646 46.2237 166.619 46.1965C166.592 46.1693 166.555 46.154 166.516 46.1538H164.981C164.943 46.154 164.906 46.1694 164.879 46.1966C164.852 46.2238 164.836 46.2607 164.836 46.2991V46.7297C164.836 46.7681 164.852 46.8049 164.879 46.8322C164.906 46.8594 164.943 46.8748 164.981 46.875Z" fill="#919898"/>
<path fill-rule="evenodd" clip-rule="evenodd" d="M164.106 46.875H164.502C164.537 46.8748 164.571 46.8606 164.596 46.8355C164.621 46.8104 164.635 46.7765 164.635 46.7411V46.2846C164.635 46.2492 164.621 46.2153 164.596 46.1902C164.571 46.1651 164.537 46.1509 164.502 46.1507H164.106C164.07 46.1509 164.037 46.1651 164.012 46.1902C163.987 46.2153 163.973 46.2492 163.973 46.2846V46.7411C163.973 46.7765 163.987 46.8104 164.012 46.8355C164.037 46.8606 164.07 46.8748 164.106 46.875Z" fill="#919898"/>
<path fill-rule="evenodd" clip-rule="evenodd" d="M148 38.4141V28.9603C148.001 28.7057 148.102 28.4616 148.282 28.2815C148.462 28.1014 148.706 28 148.96 27.9994H150.766C151.02 28 151.264 28.1014 151.445 28.2815C151.625 28.4615 151.726 28.7056 151.727 28.9603V38.4141C151.726 38.6688 151.625 38.9129 151.445 39.0929C151.264 39.273 151.02 39.3744 150.766 39.375H148.96C148.706 39.3744 148.462 39.273 148.282 39.0929C148.102 38.9128 148.001 38.6688 148 38.4141Z" fill="#273335"/>
<path d="M150.766 39.0078H148.961C148.632 39.0078 148.366 38.7414 148.366 38.4129V28.9591C148.366 28.6305 148.632 28.3641 148.961 28.3641H150.766C151.095 28.3641 151.361 28.6305 151.361 28.9591V38.4129C151.361 38.7414 151.095 39.0078 150.766 39.0078Z" fill="#455456"/>
<path fill-rule="evenodd" clip-rule="evenodd" d="M148.706 36.3008V31.5587C148.706 31.3426 148.851 31.1661 149.027 31.1661H149.981C150.159 31.1661 150.303 31.3426 150.303 31.5587V36.3008C150.303 36.5168 150.159 36.6934 149.981 36.6934H149.027C148.851 36.6934 148.706 36.5168 148.706 36.3008Z" fill="#747F81"/>
<path fill-rule="evenodd" clip-rule="evenodd" d="M150.701 29.252V38.7575C150.701 38.844 150.682 38.9294 150.646 39.0078H150.779C150.937 39.0072 151.089 38.944 151.201 38.832C151.313 38.72 151.376 38.5682 151.377 38.4098V28.9043C151.376 28.7459 151.313 28.5941 151.201 28.4821C151.089 28.3701 150.937 28.3069 150.779 28.3063H148.964C148.851 28.307 148.741 28.3392 148.646 28.3993C148.551 28.4594 148.474 28.545 148.425 28.6464V28.654H150.107C150.264 28.6556 150.415 28.7192 150.526 28.8311C150.638 28.943 150.701 29.0942 150.701 29.252Z" fill="#273335"/>
<path d="M150.008 38.6445H149.001C148.838 38.6445 148.706 38.5124 148.706 38.3493V37.4698C148.706 37.3068 148.838 37.1747 149.001 37.1747H150.008C150.171 37.1747 150.303 37.3068 150.303 37.4698V38.3493C150.303 38.5124 150.171 38.6445 150.008 38.6445Z" fill="#747F81"/>
<path fill-rule="evenodd" clip-rule="evenodd" d="M148.946 37.8494V38.2465C148.946 38.264 148.949 38.2813 148.956 38.2974C148.963 38.3135 148.973 38.3282 148.985 38.3404C148.998 38.3527 149.012 38.3625 149.029 38.3691C149.045 38.3757 149.062 38.379 149.08 38.3789H149.536C149.571 38.3789 149.605 38.365 149.63 38.3402C149.655 38.3154 149.669 38.2817 149.669 38.2465V37.8494C149.669 37.8141 149.655 37.7804 149.63 37.7555C149.605 37.7305 149.571 37.7164 149.536 37.7162H149.08C149.044 37.7162 149.01 37.7302 148.985 37.7552C148.96 37.7801 148.946 37.814 148.946 37.8494Z" fill="#919898"/>
<path fill-rule="evenodd" clip-rule="evenodd" d="M148.946 34.7491V36.2851C148.946 36.3235 148.961 36.3603 148.989 36.3874C149.016 36.4145 149.053 36.4297 149.091 36.4297H149.521C149.56 36.4297 149.597 36.4145 149.624 36.3874C149.651 36.3603 149.667 36.3235 149.667 36.2851V34.7491C149.667 34.7107 149.651 34.6739 149.624 34.6468C149.597 34.6197 149.56 34.6045 149.521 34.6045H149.091C149.053 34.6045 149.016 34.6197 148.989 34.6468C148.961 34.6739 148.946 34.7107 148.946 34.7491Z" fill="#919898"/>
<path d="M149.533 34.4023H149.079C149.005 34.4023 148.946 34.3427 148.946 34.2692V33.8728C148.946 33.7993 149.005 33.7397 149.079 33.7397H149.533C149.606 33.7397 149.666 33.7993 149.666 33.8728V34.2692C149.666 34.3427 149.606 34.4023 149.533 34.4023Z" fill="#919898"/>
<path d="M149 30.3281H1V37.3281H149V30.3281Z" fill="#B3B8BA"/>
<path d="M145.487 30.3281H3.51349C2.12533 30.3281 1 30.732 1 31.2302V35.4261C1 35.9243 2.12533 36.3281 3.51349 36.3281H145.487C146.875 36.3281 148 35.9243 148 35.4261V31.2302C148 30.732 146.875 30.3281 145.487 30.3281Z" fill="#D3D6D8"/>
<path fill-rule="evenodd" clip-rule="evenodd" d="M145.038 33.3281H2.95955C2.70523 33.328 2.46148 33.2962 2.28165 33.2399C2.10181 33.1836 2.00054 33.1073 2 33.0277V31.6286C2.00108 31.549 2.10253 31.4728 2.28224 31.4165C2.46196 31.3602 2.70539 31.3285 2.95955 31.3281H145.038C145.293 31.3283 145.537 31.36 145.717 31.4163C145.897 31.4726 145.999 31.5489 146 31.6286V33.0277C145.999 33.1074 145.897 33.1837 145.717 33.24C145.537 33.2963 145.293 33.328 145.038 33.3281Z" fill="#B3B8BA"/>
<path fill-rule="evenodd" clip-rule="evenodd" d="M143.062 36.3281H4.93626C4.15835 36.3272 3.41308 36.2216 2.86301 36.0343C2.31294 35.847 2.00271 35.5933 2 35.3285C2.00217 35.0635 2.31216 34.8096 2.86229 34.6222C3.41241 34.4348 4.15799 34.329 4.93626 34.3281H143.062C143.84 34.329 144.586 34.4347 145.136 34.6221C145.687 34.8095 145.997 35.0635 146 35.3285C145.997 35.5934 145.687 35.8473 145.136 36.0346C144.586 36.2219 143.84 36.3274 143.062 36.3281Z" fill="#EAECEC"/>
<path fill-rule="evenodd" clip-rule="evenodd" d="M137.955 36.0777H118.923C118.655 36.0776 118.398 36.0433 118.208 35.9824C118.018 35.9215 117.911 35.8389 117.911 35.7527C117.912 35.6666 118.019 35.5842 118.208 35.5233C118.398 35.4624 118.655 35.4281 118.923 35.4277H137.955C138.223 35.4281 138.48 35.4624 138.67 35.5233C138.86 35.5842 138.967 35.6666 138.968 35.7527C138.967 35.8389 138.86 35.9215 138.67 35.9824C138.481 36.0433 138.223 36.0776 137.955 36.0777Z" fill="white"/>
<path fill-rule="evenodd" clip-rule="evenodd" d="M108.673 36.0777H115.116C115.378 36.0774 115.63 36.043 115.815 35.9821C116.001 35.9213 116.105 35.8388 116.106 35.7527C116.105 35.6667 116.001 35.5842 115.815 35.5233C115.63 35.4624 115.378 35.4281 115.116 35.4277H108.673C108.411 35.4281 108.159 35.4624 107.974 35.5233C107.788 35.5842 107.684 35.6667 107.683 35.7527C107.684 35.8388 107.788 35.9213 107.974 35.9821C108.159 36.043 108.411 36.0774 108.673 36.0777Z" fill="white"/>
<path d="M148.32 39.3281H150.069C150.316 39.3281 150.553 39.2182 150.727 39.0226C150.902 38.8269 151 38.5615 151 38.2848V28.0214C151 27.7447 150.902 27.4793 150.727 27.2837C150.553 27.088 150.316 26.9781 150.069 26.9781H148.32C148.073 26.9781 147.837 27.088 147.662 27.2835C147.488 27.479 147.39 27.7441 147.39 28.0206V38.2857C147.39 38.5621 147.488 38.8271 147.663 39.0226C147.837 39.218 148.073 39.3279 148.32 39.3281Z" fill="#273335"/>
<path d="M148.35 38.6777H149.438C149.533 38.6777 149.624 38.6127 149.692 38.4968C149.759 38.381 149.797 38.2239 149.797 38.06V28.2447C149.797 28.081 149.759 27.9241 149.692 27.8084C149.625 27.6927 149.534 27.6277 149.439 27.6277H148.35C148.255 27.6277 148.164 27.6928 148.097 27.8087C148.029 27.9245 147.992 28.0816 147.992 28.2454V38.06C147.992 38.2239 148.029 38.381 148.097 38.4968C148.164 38.6127 148.255 38.6777 148.35 38.6777Z" fill="#455456"/>
<path fill-rule="evenodd" clip-rule="evenodd" d="M149.797 36.313V31.294C149.797 31.0653 149.633 30.8785 149.434 30.8785H148.354C148.155 30.8785 147.992 31.0653 147.992 31.294V36.313C147.992 36.5417 148.155 36.7285 148.354 36.7285H149.434C149.633 36.7285 149.797 36.5417 149.797 36.313Z" fill="#747F81"/>
<path fill-rule="evenodd" clip-rule="evenodd" d="M148.405 28.6056V38.4193C148.405 38.5085 148.417 38.5967 148.439 38.6777H148.357C148.26 38.6769 148.167 38.6114 148.099 38.4954C148.031 38.3795 147.992 38.2225 147.992 38.0588V28.2451C147.992 28.0816 148.031 27.9249 148.099 27.8092C148.168 27.6936 148.26 27.6284 148.357 27.6277H149.467C149.536 27.6282 149.604 27.6613 149.662 27.7234C149.72 27.7855 149.767 27.874 149.797 27.9788V27.9867H148.768C148.672 27.9886 148.58 28.0545 148.512 28.1704C148.444 28.2862 148.405 28.4426 148.405 28.6056Z" fill="#273335"/>
<path fill-rule="evenodd" clip-rule="evenodd" d="M149.797 37.1202V38.2853C149.797 38.3892 149.761 38.4889 149.699 38.5624C149.637 38.636 149.552 38.6775 149.463 38.6777H148.326C148.237 38.6775 148.152 38.636 148.09 38.5625C148.027 38.489 147.992 38.3893 147.992 38.2853V37.1202C147.992 37.0162 148.027 36.9165 148.09 36.843C148.152 36.7694 148.237 36.728 148.326 36.7277H149.462C149.551 36.7277 149.636 36.7691 149.699 36.8427C149.761 36.9163 149.797 37.0161 149.797 37.1202Z" fill="#747F81"/>
<path fill-rule="evenodd" clip-rule="evenodd" d="M149.797 37.5099V37.8987C149.797 37.9159 149.794 37.933 149.788 37.9489C149.783 37.9647 149.775 37.9792 149.764 37.9913C149.754 38.0034 149.742 38.0131 149.728 38.0196C149.715 38.0261 149.7 38.0294 149.686 38.0293H149.306C149.277 38.0293 149.249 38.0155 149.228 37.991C149.207 37.9666 149.195 37.9333 149.195 37.8987V37.5099C149.195 37.4753 149.207 37.4422 149.228 37.4178C149.249 37.3933 149.277 37.3795 149.306 37.3793H149.686C149.715 37.3793 149.743 37.393 149.764 37.4175C149.785 37.442 149.797 37.4752 149.797 37.5099Z" fill="#919898"/>
<path d="M149.676 36.0781H149.316C149.249 36.0781 149.195 36.009 149.195 35.9237V34.2826C149.195 34.1973 149.249 34.1281 149.316 34.1281H149.676C149.743 34.1281 149.797 34.1973 149.797 34.2826V35.9237C149.797 36.009 149.743 36.0781 149.676 36.0781Z" fill="#919898"/>
<path d="M149.686 34.1289H149.306C149.245 34.1289 149.195 34.0704 149.195 33.9983V33.6095C149.195 33.5374 149.245 33.4789 149.306 33.4789H149.686C149.747 33.4789 149.797 33.5374 149.797 33.6095V33.9983C149.797 34.0704 149.747 34.1289 149.686 34.1289Z" fill="#919898"/>
<defs>
<linearGradient id="paint0_linear_5458_33863" x1="83.3748" y1="75.0996" x2="83.3748" y2="85.3476" gradientUnits="userSpaceOnUse">
<stop stop-color="#595454"/>
<stop offset="0.5" stop-color="#BFB3B3"/>
<stop offset="1" stop-color="#595454"/>
</linearGradient>
<linearGradient id="paint1_linear_5458_33863" x1="82.2568" y1="80.2247" x2="84.0337" y2="80.2247" gradientUnits="userSpaceOnUse">
<stop stop-color="#BFB3B3"/>
<stop offset="1" stop-color="#595454"/>
</linearGradient>
<linearGradient id="paint2_linear_5458_33863" x1="83.3748" y1="105.191" x2="83.3748" y2="115.439" gradientUnits="userSpaceOnUse">
<stop stop-color="#595454"/>
<stop offset="0.5" stop-color="#BFB3B3"/>
<stop offset="1" stop-color="#595454"/>
</linearGradient>
<linearGradient id="paint3_linear_5458_33863" x1="82.2568" y1="110.316" x2="84.0337" y2="110.316" gradientUnits="userSpaceOnUse">
<stop stop-color="#BFB3B3"/>
<stop offset="1" stop-color="#595454"/>
</linearGradient>
<linearGradient id="paint4_linear_5458_33863" x1="130.041" y1="85.6309" x2="130.041" y2="75.3829" gradientUnits="userSpaceOnUse">
<stop stop-color="#595454"/>
<stop offset="0.5" stop-color="#BFB3B3"/>
<stop offset="1" stop-color="#595454"/>
</linearGradient>
<linearGradient id="paint5_linear_5458_33863" x1="131.159" y1="93.6837" x2="132.936" y2="93.6837" gradientUnits="userSpaceOnUse">
<stop stop-color="#BFB3B3"/>
<stop offset="1" stop-color="#595454"/>
</linearGradient>
<linearGradient id="paint6_linear_5458_33863" x1="130.041" y1="115.719" x2="130.041" y2="105.471" gradientUnits="userSpaceOnUse">
<stop stop-color="#595454"/>
<stop offset="0.5" stop-color="#BFB3B3"/>
<stop offset="1" stop-color="#595454"/>
</linearGradient>
<linearGradient id="paint7_linear_5458_33863" x1="131.159" y1="123.772" x2="132.936" y2="123.772" gradientUnits="userSpaceOnUse">
<stop stop-color="#BFB3B3"/>
<stop offset="1" stop-color="#595454"/>
</linearGradient>
<linearGradient id="paint8_linear_5458_33863" x1="105.15" y1="56.6995" x2="107.789" y2="56.6995" gradientUnits="userSpaceOnUse">
<stop stop-color="#595454"/>
<stop offset="0.5" stop-color="#B9B3B3"/>
<stop offset="1" stop-color="#595454"/>
</linearGradient>
<linearGradient id="paint9_linear_5458_33863" x1="101.634" y1="61.4284" x2="111.309" y2="61.4284" gradientUnits="userSpaceOnUse">
<stop stop-color="#595454"/>
<stop offset="0.5" stop-color="#BFB3B3"/>
<stop offset="1" stop-color="#595454"/>
</linearGradient>
<linearGradient id="paint10_linear_5458_33863" x1="106.908" y1="122.272" x2="106.908" y2="66.6171" gradientUnits="userSpaceOnUse">
<stop stop-color="#FAFAFA"/>
<stop offset="1" stop-color="#74B8FD"/>
</linearGradient>
<linearGradient id="paint11_linear_5458_33863" x1="92.5513" y1="133.745" x2="88.5122" y2="133.745" gradientUnits="userSpaceOnUse">
<stop stop-color="#595454"/>
<stop offset="0.5" stop-color="#BFB3B3"/>
<stop offset="1" stop-color="#595454"/>
</linearGradient>
<linearGradient id="paint12_linear_5458_33863" x1="123.622" y1="134.28" x2="119.224" y2="134.28" gradientUnits="userSpaceOnUse">
<stop stop-color="#595454"/>
<stop offset="0.5" stop-color="#BFB3B3"/>
<stop offset="1" stop-color="#595454"/>
</linearGradient>
<linearGradient id="paint13_linear_5458_33863" x1="106.684" y1="52.5391" x2="106.684" y2="50.7998" gradientUnits="userSpaceOnUse">
<stop stop-color="#595454"/>
<stop offset="0.5" stop-color="#B9B3B3"/>
<stop offset="1" stop-color="#595454"/>
</linearGradient>
<linearGradient id="paint14_linear_5458_33863" x1="106.72" y1="56.8867" x2="106.72" y2="55.1475" gradientUnits="userSpaceOnUse">
<stop stop-color="#595454"/>
<stop offset="0.5" stop-color="#B9B3B3"/>
<stop offset="1" stop-color="#595454"/>
</linearGradient>
<linearGradient id="paint15_linear_5458_33863" x1="128.017" y1="65.4937" x2="85.7065" y2="65.4937" gradientUnits="userSpaceOnUse">
<stop stop-color="#595454"/>
<stop offset="0.5" stop-color="#BFB3B3"/>
<stop offset="1" stop-color="#595454"/>
</linearGradient>
<linearGradient id="paint16_linear_5458_33863" x1="85.7065" y1="126.545" x2="128.017" y2="126.545" gradientUnits="userSpaceOnUse">
<stop stop-color="#595454"/>
<stop offset="0.5" stop-color="#BFB3B3"/>
<stop offset="1" stop-color="#595454"/>
</linearGradient>
<linearGradient id="paint17_linear_5458_33863" x1="84.9219" y1="69.4958" x2="128.899" y2="69.4958" gradientUnits="userSpaceOnUse">
<stop stop-color="#595454"/>
<stop offset="0.5" stop-color="#BFB3B3"/>
<stop offset="1" stop-color="#595454"/>
</linearGradient>
<linearGradient id="paint18_linear_5458_33863" x1="84.9219" y1="121.674" x2="128.899" y2="121.674" gradientUnits="userSpaceOnUse">
<stop stop-color="#595454"/>
<stop offset="0.5" stop-color="#BFB3B3"/>
<stop offset="1" stop-color="#595454"/>
</linearGradient>
</defs>
</svg>
