<svg xmlns="http://www.w3.org/2000/svg" width="512" height="512"><path d="M475.34 69.406c6.262 4.418 10.78 10.12 13.289 17.426 1.68 9.814 1.25 18.866-3.785 27.606-4.13 5.74-9.232 9.948-15.844 12.562h-3c-.105 3.8.004 7.317 1 11 1.847 1.585 3.533 2.216 5.805 3.066 6.416 2.73 9.898 8.53 12.468 14.723 1.333 4.056 1.852 7.896 1.856 12.157l.01 2.957-.005 3.225.007 3.445q.007 5.726.004 11.45l.01 8.2q.012 9.987.012 19.973 0 8.115.006 16.23.013 23 .012 46.001v5.013q.002 20.131.023 40.264.023 20.666.02 41.332-.001 11.604.014 23.21.014 9.876.005 19.753-.006 5.04.005 10.081c.008 3.64.003 7.28-.005 10.919l.016 3.232-.014 2.95v2.545c-.28 2.556-.862 4.115-2.249 6.274-3.837 2.558-6.965 2.287-11.413 2.274l-2.633.016c-2.923.015-5.845.016-8.768.016q-3.136.012-6.272.026c-5.688.022-11.376.03-17.064.035q-5.328.006-10.655.017-18.575.037-37.15.042c-11.553.003-23.107.033-34.66.075q-14.866.051-29.733.05c-5.923.002-11.845.01-17.768.039q-8.355.038-16.71.012-3.07-.003-6.137.02c-2.79.021-5.58.01-8.37-.007l-2.46.04c-3.69-.055-6.03-.55-9.21-2.45-3.054-4.9-2.684-9.42-2.625-15.086l-.022-3.69c-.014-3.377-.006-6.753.011-10.13.013-3.643-.002-7.286-.014-10.928-.018-7.136-.01-14.27.008-21.406q.02-8.697.015-17.395l-.002-2.5q0-2.513-.003-5.027c-.008-14.822.008-29.643.038-44.465q.044-21.577.02-43.156a21471 21471 0 0 1 .006-54.482q.006-8.688-.005-17.376a4541 4541 0 0 1 .024-21.173c.013-3.601.02-7.203.008-10.804-.012-3.902.007-7.804.03-11.706l-.026-3.46c.08-7.604.08-7.604 2.342-11.624 2.747-2.245 4.8-2.494 8.303-2.262 28.174 4.525 54.36 20.736 77.707 36.278 19.682 13.03 37.791 17.524 61.188 17.875q2.347.05 4.695.103 5.652.123 11.305.209l-.08-3.054a971 971 0 0 1-.195-11.35q-.038-2.445-.102-4.888c-.277-10.63-.382-19.636 7.387-27.828 3.04-2.868 5.47-4.691 9.428-6.13 2.818-1.498 2.818-1.498 3.152-4.371.26-2.805.4-5.563.41-8.379l-2.223-.34c-7.06-1.678-12.575-6.719-16.558-12.617-5.054-8.472-5.92-18.074-3.563-27.73 3.109-7.719 9.68-15.553 17.196-19.215 10.308-4.067 22.007-3.39 31.488 2.308m-29.652 18.156c-3.096 4.472-3.339 8.079-2.688 13.438 2.22 4.357 4.855 7.397 9 10 5.625 1.563 8.932.816 14-2 4.453-3.833 4.453-3.833 6.238-9.172.168-5.826-.16-9.32-4.238-13.828-3.963-3.423-6.923-4.614-12.047-4.32-4.5.738-7.252 2.543-10.265 5.882M449 157c-4.007 4.733-3.41 9.897-3.36 15.776l-.009 3.329c-.004 3.688.012 7.376.028 11.064v7.923q-.002 8.535.024 17.07c.024 8.225.032 16.451.036 24.678q.01 20.02.055 40.04.041 19.446.061 38.893l.003 2.422.011 12.028c.031 33.259.085 66.518.151 99.777h24a93904 93904 0 0 0 .165-112.836l.002-2.396q.021-19.203.064-38.406.043-19.705.051-39.41.005-12.158.042-24.317.024-9.324.015-18.647.001-3.825.019-7.65c.015-3.478.011-6.957.003-10.436l.026-3.063c-.04-6.431-.592-11.734-5.074-16.714-5.946-2.892-10.89-2.909-16.313.875m-168 1v172h23V167c-11.3-5.099-11.3-5.099-23-9m40 19v153h25c.232-17.872.41-35.743.518-53.616.052-8.3.122-16.597.236-24.896q.152-10.85.187-21.703c.013-3.83.043-7.658.116-11.488q.1-5.41.074-10.822c.004-1.95.058-3.898.113-5.846-.004-6.578-.004-6.578-3.415-11.928-2.538-1.8-5.065-3.277-7.829-4.701a218 218 0 0 1-3.75-2.434l-3.25-2.004-3.312-2.058c-2.466-1.667-2.466-1.667-4.688-1.504m42 25v128h25V209c-12.463-3.64-12.463-3.64-25-7m42 8v120h24V210zM281 347v18h148v-18zm0 35v48h23v-48zm40 0v48h25v-48zm42 0v48h25v-48zm42 0v48h24v-48zM71 69c7.273 5.173 12.615 11.329 15 20 1.078 11.277-.035 20.364-7.187 29.313C75.154 122.208 70.959 125 66 127h-3c-.168 3.83-.067 7.301 1 11 2.073 1.775 4.087 2.67 6.578 3.77 5.768 2.93 9.34 8.392 11.787 14.234 1.092 3.432 1.004 6.764.928 10.336l-.013 2.324a814 814 0 0 1-.093 7.274q-.022 2.481-.04 4.962c-.033 4.034-.085 8.067-.147 12.1q6.824-.106 13.647-.262 2.31-.05 4.62-.084c24.522-.377 42.285-6.71 62.643-20.306 20.106-13.367 50.526-33.517 75.465-33.848.791-.03 1.583-.062 2.398-.094 3.554.948 4.354 2.423 6.227 5.594.608 3.956.544 7.885.515 11.88l.02 3.69c.016 3.378.013 6.754.003 10.13-.007 3.644.009 7.287.022 10.93.021 7.135.021 14.27.013 21.405q-.008 8.697.001 17.395l.003 2.5.006 5.027c.016 15.718.007 31.435-.01 47.153-.014 14.384 0 28.769.03 43.153a16801 16801 0 0 1 .027 49.307l-.001 2.49q-.002 8.688.022 17.376.027 10.587-.005 21.173c-.012 3.601-.015 7.203.004 10.804.02 3.903 0 7.804-.022 11.706l.036 3.46c-.056 4.712-.134 7.572-2.662 11.624-3.915 2.344-7.227 2.49-11.663 2.425l-2.64.022c-2.919.017-5.837 0-8.756-.019q-3.139.008-6.278.022c-5.684.018-11.367.005-17.051-.014-5.944-.017-11.888-.008-17.832-.003a9209 9209 0 0 1-29.943-.04 8111 8111 0 0 0-34.64-.014c-11.1.016-22.2.01-33.3-.008q-7.091-.01-14.182.002-8.346.01-16.693-.032-3.066-.01-6.134 0c-2.786.009-5.57-.007-8.356-.03l-2.466.026c-3.603-.054-5.643-.212-8.539-2.447-2.285-3.128-2.655-4.83-2.66-8.653l-.012-2.928.003-3.24-.01-3.423q-.01-5.719-.011-11.437l-.015-8.169q-.02-11.126-.024-22.253-.005-6.948-.012-13.897-.019-19.24-.026-38.48v-4.9830000000000005l-.003-7.514q-.008-20.097-.045-40.195-.035-20.635-.037-41.27.001-11.586-.025-23.17-.023-9.87-.012-19.74.007-5.033-.011-10.065c-.013-3.645-.007-7.289.004-10.933l-.025-3.185c.067-10 1.937-19.138 9.251-26.406 3.747-3.43 6.29-5.211 11.141-7.152l1-11-5-1c-7.981-3.722-13.982-10.066-17.305-18.219C21.312 98.247 21.921 87.518 27 79c4.331-6.51 10.028-10.364 17.188-13.312C53.663 63.978 62.53 64.069 71 69M41.625 88.625C39.423 93.199 39.197 97.009 40 102c2.185 4.45 4.459 6.993 9 9 5.646 1.464 8.945.902 14-2 3.785-3.667 6.141-6.942 6.313-12.25C69.245 92.082 68.148 89.562 65 86c-4.155-3.672-7.419-4.655-12.824-4.383-4.762.838-7.412 3.539-10.551 7.008m2.563 70.313c-2.013 3.494-2.313 6.707-2.311 10.693l-.006 2.821.009 3.09-.003 3.289q0 5.475.01 10.95l-.001 7.833q0 8.443.008 16.886.011 12.207.012 24.413.004 19.805.019 39.609.014 19.239.02 38.478v2.395l.005 11.897q.016 49.354.05 98.708h24a96337 96337 0 0 0 .165-114.227l.002-2.425c.013-12.962.037-25.924.064-38.886q.042-19.946.051-39.89.005-12.312.042-24.622.023-8.437.017-16.876-.004-4.87.017-9.741c.014-3.52.011-7.038.003-10.557l.026-3.116c-.013-6.838-.013-6.838-3.387-12.66-6.838-4.311-13.035-4.238-18.812 1.938m175.937 2.937-2.8 1.105-2.692 1.075-2.472.984c-2.382.987-2.382.987-5.161 2.961-.45 2.907-.45 2.907-.36 6.39l-.009 2.01c-.004 2.233.012 4.465.028 6.698v4.79c-.002 4.342.016 8.685.037 13.027.019 4.535.02 9.07.024 13.605.01 8.592.034 17.184.064 25.776.033 9.78.05 19.56.065 29.34.031 20.121.085 40.242.151 60.364h24V158c-3.497 0-7.667 2.593-10.875 3.875m-36.098 18.152-2.974 1.9-3.115 2.01-3.127 1.999c-4.635 2.733-4.635 2.733-8.811 6.064a98 98 0 0 0-.12 5.36l-.004 3.522.01 3.9v4.079q.001 5.553.013 11.107c.006 3.865.006 7.73.008 11.595q.005 10.986.021 21.972.016 12.504.022 25.008.016 25.729.05 51.457h25V177c-2.94 0-4.51 1.449-6.973 3.027m-44.714 24.348-4.2 1.336-1.881.603c-3.064.942-6.15 1.806-9.232 2.686v121h25V202c-3.371 0-6.501 1.352-9.687 2.375M83 210v120h24V210zm0 137v18h148v-18zm0 35v48h24v-48zm41 0v48h25v-48zm42 0v48h25v-48zm41 0v48h24v-48z"/></svg>